<?xml version="1.0" standalone="no"?>
<!DOCTYPE svg PUBLIC "-//W3C//DTD SVG 20010904//EN"
 "http://www.w3.org/TR/2001/REC-SVG-20010904/DTD/svg10.dtd">
<svg version="1.0" xmlns="http://www.w3.org/2000/svg"
 width="1418.000000pt" height="789.000000pt" viewBox="0 0 1418.000000 789.000000"
 preserveAspectRatio="xMidYMid meet">
<metadata>
Created by potrace 1.16, written by Peter Selinger 2001-2019
</metadata>
<g transform="translate(0.000000,789.000000) scale(0.100000,-0.100000)"
fill="#000000" stroke="none">
<path d="M0 6655 l0 -1235 28 6 c15 4 29 10 32 14 3 4 17 10 33 14 15 3 27 10
27 15 0 5 8 7 17 5 12 -3 24 5 35 23 10 15 18 22 18 16 0 -21 30 -15 30 6 0
17 6 19 45 15 28 -3 54 1 68 10 32 20 87 28 87 13 0 -9 2 -9 8 1 6 9 14 2 28
-23 13 -25 24 -35 37 -31 9 2 17 0 17 -5 0 -5 -8 -9 -17 -9 -11 0 -13 -3 -8
-9 6 -6 8 -35 7 -67 -3 -45 -8 -57 -23 -61 -24 -7 -24 -4 8 -73 24 -52 28 -57
39 -42 12 16 14 15 15 -3 1 -11 3 -27 4 -35 1 -8 3 -23 4 -32 0 -12 9 -18 25
-18 20 0 24 5 22 28 -2 47 22 40 38 -12 6 -17 8 -17 24 -3 14 13 19 13 30 1 6
-7 12 -18 12 -24 0 -5 5 -10 10 -10 6 0 13 -1 18 -2 13 -4 30 -66 24 -94 -2
-14 0 -29 6 -33 13 -8 42 -78 42 -101 0 -21 26 -45 34 -31 3 5 7 21 8 35 1 14
6 26 10 26 4 0 5 14 1 32 -6 28 -4 31 15 26 18 -5 22 -2 22 19 0 20 4 24 20
20 11 -3 18 -2 15 3 -3 4 3 10 13 13 9 2 24 8 33 11 12 5 18 0 23 -16 6 -21 7
-22 20 -5 15 20 36 23 36 4 0 -7 10 -18 22 -26 l21 -13 -24 -19 c-31 -24 -37
-24 -59 4 l-19 22 -16 -23 c-13 -18 -20 -20 -37 -11 -29 15 -44 -2 -27 -32 7
-15 14 -19 17 -11 6 19 34 14 30 -5 -3 -19 -48 -32 -48 -14 0 6 -6 11 -14 11
-12 0 -13 -7 -5 -32 5 -18 9 -34 9 -36 0 -2 -13 -1 -30 3 -29 6 -42 -6 -20
-20 16 -10 11 -23 -11 -30 -15 -5 -25 -2 -31 9 -14 25 -28 19 -28 -13 0 -38
-16 -48 -31 -19 -11 20 -13 20 -24 5 -6 -9 -15 -14 -18 -10 -4 3 -7 1 -7 -5 0
-6 -11 -1 -25 11 -24 21 -24 23 -7 37 10 8 16 23 14 33 -3 16 7 21 36 18 8 -1
21 4 30 11 13 11 14 11 8 -1 -6 -9 -5 -12 3 -10 24 8 16 24 -17 35 -40 12 -86
54 -60 54 18 0 31 40 22 64 -9 24 -32 19 -59 -12 -21 -24 -26 -25 -45 -14 -14
9 -26 10 -40 2 -27 -14 -30 -13 -30 14 0 23 -27 40 -133 84 -15 6 -27 18 -27
26 0 28 22 28 47 1 30 -31 43 -21 41 33 -2 42 -22 60 -43 38 -23 -22 -25 -20
-18 16 7 36 -14 58 -56 58 -28 -1 -61 -21 -61 -38 0 -5 -7 -13 -16 -16 -13 -5
-14 -9 -4 -21 10 -12 8 -18 -11 -35 -26 -21 -54 -26 -64 -10 -9 14 -35 0 -35
-19 0 -9 -5 -22 -11 -28 -7 -7 -6 -12 5 -16 11 -4 16 -1 16 11 0 12 4 10 13
-8 8 -14 19 -24 27 -22 9 2 11 -6 8 -28 -3 -20 0 -30 8 -30 7 0 18 -8 23 -19
8 -15 5 -20 -15 -30 -24 -11 -25 -13 -12 -33 20 -30 69 -43 85 -22 6 9 19 14
28 12 15 -2 13 -8 -10 -31 -26 -26 -27 -28 -11 -40 17 -13 17 -15 -2 -46 -12
-19 -23 -28 -26 -22 -11 18 -33 13 -39 -9 -3 -11 -2 -20 3 -20 9 0 23 -61 15
-68 -2 -3 -11 1 -20 8 -9 7 -18 10 -22 6 -10 -9 -4 -89 8 -101 5 -5 9 -26 9
-47 0 -27 4 -38 15 -38 7 0 18 -7 23 -17 6 -10 16 -14 26 -10 10 4 26 2 37 -3
15 -8 26 -6 51 12 18 13 36 27 40 32 4 6 13 4 23 -4 12 -10 18 -11 24 -2 4 7
17 9 35 4 l27 -7 -35 -13 c-20 -7 -36 -19 -36 -26 0 -7 -25 -23 -55 -35 -62
-26 -83 -52 -60 -71 8 -7 29 -10 45 -8 24 4 35 -1 50 -19 11 -14 23 -22 28
-19 21 13 175 33 200 26 28 -8 31 -7 -88 -23 -18 -3 -22 -87 -5 -99 17 -13 35
-9 35 7 0 10 10 15 28 16 15 0 35 2 46 4 22 4 56 -15 56 -32 0 -20 17 -24 57
-15 45 10 63 6 63 -15 0 -13 9 -14 50 -9 48 6 50 6 50 -18 0 -14 -5 -28 -10
-31 -6 -4 -8 -11 -5 -16 10 -15 22 -10 28 11 4 15 14 20 36 20 17 0 51 5 76
12 40 11 45 15 41 34 -4 16 0 23 14 27 12 3 20 14 20 26 0 27 20 27 27 1 3
-11 9 -20 14 -20 5 0 9 -6 9 -13 0 -12 12 -21 63 -45 4 -2 7 1 7 7 0 6 -7 11
-15 11 -8 0 -15 7 -15 15 0 25 -1 29 -12 43 -8 9 -6 12 6 12 9 0 19 7 22 15 4
8 15 15 25 15 12 0 21 9 25 25 3 14 9 25 13 25 16 0 167 -40 186 -50 20 -9
160 -47 281 -74 79 -19 176 -58 182 -73 2 -7 -8 -18 -21 -24 -14 -6 -28 -20
-30 -30 -3 -11 -14 -19 -26 -19 -24 0 -26 -6 -9 -43 11 -23 19 -27 56 -27 23
0 42 -4 42 -10 0 -5 -7 -10 -15 -10 -8 0 -15 -7 -15 -16 0 -8 -4 -12 -10 -9
-5 3 -10 -3 -10 -14 0 -12 -7 -21 -15 -21 -8 0 -15 -4 -15 -10 0 -5 4 -10 10
-10 5 0 7 -13 4 -30 -5 -22 -3 -30 7 -30 8 0 25 -3 38 -7 21 -5 23 -3 18 18
-3 13 1 42 8 64 7 22 13 32 14 23 1 -11 9 -18 22 -18 18 0 20 4 15 25 -6 23
-4 25 29 25 37 0 46 -13 18 -28 -9 -5 -21 -25 -27 -43 -11 -34 -40 -47 -42
-19 -3 32 -5 34 -14 20 -13 -21 -13 -23 15 -63 24 -37 18 -60 -11 -36 -20 17
-26 7 -15 -25 11 -26 51 -38 51 -14 0 22 69 76 90 71 11 -3 20 -1 20 5 0 14
-20 26 -45 26 -22 1 -25 6 -25 36 0 11 5 20 11 20 5 0 8 -4 4 -9 -3 -5 -1 -12
4 -16 13 -8 29 24 24 46 -4 13 0 19 12 19 17 0 18 -21 1 -61 -6 -13 -1 -16 23
-15 18 1 31 6 31 14 0 7 5 10 11 6 8 -4 8 -1 0 14 -7 14 -17 19 -29 16 -14 -5
-14 -4 -3 4 12 8 12 13 3 25 -7 8 -14 28 -16 45 -4 26 -2 29 16 24 11 -3 23
-13 25 -23 3 -11 9 -17 13 -14 5 3 18 -7 29 -21 16 -21 20 -35 15 -60 -5 -30
-3 -35 20 -44 31 -12 33 -32 5 -71 -21 -30 -56 -39 -65 -15 -3 7 -23 19 -44
26 -36 12 -42 11 -60 -5 -12 -10 -19 -24 -16 -31 3 -7 -2 -18 -10 -24 -20 -18
-17 -40 6 -40 11 0 20 6 20 14 0 8 8 17 18 21 16 6 16 7 -1 20 -16 11 -14 13
18 17 19 2 35 0 35 -4 0 -4 9 -8 21 -8 12 0 23 -8 26 -20 5 -20 23 -28 23 -11
0 5 11 8 25 7 29 -1 33 -26 9 -51 -15 -15 -15 -17 2 -30 24 -19 31 -18 38 1 4
10 13 13 26 9 26 -8 25 3 -2 32 -12 13 -19 26 -15 29 12 12 37 -6 48 -33 6
-16 17 -41 25 -57 18 -38 18 -48 -2 -44 -10 2 -19 -3 -22 -11 -3 -10 2 -13 22
-9 22 4 27 1 33 -21 4 -14 6 -34 5 -43 0 -10 3 -20 8 -23 4 -3 2 -25 -6 -51
-11 -38 -11 -51 1 -82 37 -97 47 -364 19 -522 -11 -68 -12 -99 -5 -127 14 -48
14 -120 1 -128 -5 -3 -10 -1 -10 4 0 6 -8 11 -19 11 -14 0 -17 -6 -13 -26 4
-21 9 -25 29 -19 23 5 24 3 19 -22 -3 -15 -8 -59 -12 -96 -6 -59 -9 -67 -24
-62 -30 10 -33 -14 -3 -26 l28 -10 -25 -20 c-19 -15 -36 -18 -72 -14 -26 2
-50 0 -53 -5 -3 -6 -19 -10 -34 -10 -31 0 -51 -16 -51 -43 0 -12 -6 -17 -18
-15 -26 4 -112 -34 -112 -50 0 -7 4 -11 9 -8 9 6 21 -16 21 -38 0 -14 -39 -35
-55 -29 -5 1 -9 20 -9 40 1 21 -5 46 -13 55 -14 15 -18 16 -38 2 -16 -10 -32
-12 -51 -7 -16 4 -35 6 -41 5 -7 -2 -13 5 -13 14 0 12 -7 15 -30 12 -31 -5
-33 -2 -30 43 1 21 -4 28 -25 33 -20 5 -31 2 -40 -10 -7 -10 -17 -14 -24 -10
-6 4 -19 2 -27 -5 -8 -7 -42 -13 -75 -14 -42 -1 -65 -7 -80 -21 -19 -17 -38
-18 -322 -15 -648 6 -941 16 -964 31 -18 11 -25 12 -35 2 -8 -8 -50 -12 -130
-12 l-118 0 0 -414 c0 -322 3 -415 13 -419 9 -4 9 -7 -1 -14 -9 -7 -12 -78
-10 -319 l3 -310 100 18 c55 10 133 25 174 34 40 9 101 20 135 24 33 5 104 18
156 30 52 12 114 26 138 31 53 11 68 19 53 28 -18 11 291 60 312 49 23 -12 59
-1 38 11 -8 5 6 11 38 15 29 4 56 4 61 1 6 -3 10 -2 10 3 0 5 33 14 73 21 39
7 185 35 322 61 330 64 380 73 645 114 124 19 313 53 420 75 175 36 383 74
940 172 96 17 193 34 215 38 22 4 39 13 37 19 -2 14 10 16 24 3 5 -6 34 -4 74
4 65 14 243 45 378 66 40 6 79 17 87 25 16 16 29 19 20 4 -9 -15 34 -12 137
10 51 10 145 29 208 40 218 40 232 43 243 55 6 6 23 9 39 7 29 -4 176 14 206
26 14 5 12 7 -8 12 -22 5 -24 10 -21 55 3 49 24 110 43 121 21 13 25 -14 13
-86 -8 -41 -10 -78 -7 -82 13 -14 82 4 93 23 12 23 29 25 29 4 0 -8 4 -15 8
-15 23 0 205 30 267 45 67 15 421 75 443 75 17 0 43 31 35 43 -4 7 -9 4 -14
-9 -5 -12 -8 2 -10 41 l-2 60 -6 -55 c-5 -46 -10 -56 -27 -58 -11 -2 -32 8
-47 22 -25 23 -27 31 -29 113 -1 48 -3 68 -5 43 -11 -162 -13 -170 -40 -170
-18 0 -24 4 -19 15 3 9 0 15 -8 15 -8 0 -16 6 -19 13 -2 7 -16 0 -35 -22 l-32
-33 0 125 c0 95 3 127 14 136 8 7 17 23 20 36 4 14 10 25 15 25 4 0 6 12 3 26
-3 18 1 30 18 41 20 14 21 17 6 25 -23 13 -20 28 7 28 12 0 30 12 40 26 26 35
13 44 -16 11 -27 -32 -37 -34 -37 -7 0 11 7 20 16 20 11 0 14 6 8 22 -3 12 -8
35 -9 50 -1 16 -5 31 -8 35 -4 3 -2 12 5 20 6 7 7 17 3 21 -4 4 -10 1 -12 -5
-7 -21 -44 -15 -50 7 -12 44 -20 15 -22 -79 -1 -86 1 -101 16 -110 16 -9 16
-10 -5 -11 -14 0 -22 -5 -19 -12 2 -7 12 -13 22 -13 24 0 30 -20 15 -55 -8
-19 -17 -27 -27 -23 -10 4 -14 0 -13 -13 6 -51 -12 -77 -23 -34 -3 11 -10 20
-16 20 -13 0 -4 -26 20 -61 16 -22 18 -39 12 -108 -5 -72 -9 -82 -32 -98 -27
-17 -32 -18 -30 -6 1 14 -36 20 -59 10 -18 -8 -25 -8 -32 3 -16 25 -30 -3 -38
-71 -5 -50 -11 -64 -25 -67 -16 -3 -17 4 -11 90 3 51 10 118 15 148 5 30 10
62 10 70 -1 155 2 211 15 248 19 56 18 62 -7 62 -18 0 -19 2 -9 15 7 9 14 23
15 33 1 9 4 24 7 32 3 8 10 24 14 35 4 11 8 25 9 31 0 6 9 27 19 46 14 26 29
37 60 46 22 6 43 9 45 6 4 -3 -4 -22 -27 -65 -1 -4 9 -4 23 -2 14 3 25 12 25
19 0 8 10 14 21 14 16 0 20 -5 16 -20 -7 -27 -3 -25 32 13 34 35 41 63 15 53
-13 -5 -15 -1 -10 18 3 14 2 28 -4 31 -5 3 -10 2 -10 -4 0 -6 -8 -15 -18 -20
-13 -7 -24 -4 -42 11 -17 13 -19 18 -7 14 12 -4 17 0 17 15 0 16 4 19 18 14 9
-4 25 -7 35 -7 9 0 17 -5 17 -12 0 -8 7 -19 15 -26 13 -11 15 -8 15 16 1 42
16 11 23 -46 3 -25 6 -46 6 -47 1 -2 8 -3 16 -3 7 0 19 -8 24 -17 9 -16 10
-16 11 -2 0 9 7 19 15 23 8 3 15 16 15 30 0 19 -4 23 -20 19 -14 -4 -20 0 -20
11 0 10 4 15 9 11 5 -3 11 9 13 27 2 23 9 34 22 36 16 4 18 0 13 -27 l-7 -31
43 6 c23 4 45 13 49 19 4 7 24 32 43 55 29 34 33 45 24 61 -5 11 -14 17 -20
14 -5 -4 -9 -1 -9 6 0 6 -8 9 -19 6 -17 -4 -18 -2 -9 19 9 19 13 21 25 9 7 -8
19 -12 27 -9 14 5 18 34 4 34 -4 0 -8 9 -8 21 0 15 -5 19 -15 15 -9 -3 -15 0
-15 9 0 7 -5 26 -10 40 -9 23 -13 25 -25 15 -8 -7 -15 -8 -15 -4 0 5 9 15 20
22 25 15 26 30 2 28 -21 -1 -45 -23 -55 -49 -4 -10 -11 -15 -17 -12 -16 10
-12 35 8 42 9 3 26 15 36 26 20 20 19 20 -7 14 -29 -8 -46 8 -28 26 13 13 15
37 3 37 -5 0 -19 -10 -32 -22 -17 -16 -22 -18 -18 -6 4 10 1 19 -8 22 -8 3
-14 1 -14 -4 0 -6 -7 -10 -16 -10 -10 0 -14 -6 -10 -15 6 -17 -9 -21 -19 -5
-5 7 -11 8 -19 1 -8 -7 -12 -4 -13 10 -1 10 2 19 6 19 5 0 12 10 15 23 l7 22
9 -22 c14 -35 19 -27 9 15 -12 50 -11 52 6 52 8 0 15 -9 15 -20 0 -11 7 -20
15 -20 8 0 24 -5 35 -12 28 -18 33 -6 14 41 -15 38 -15 43 0 59 14 17 14 19
-3 34 -11 9 -22 14 -24 11 -3 -2 -16 2 -29 10 -12 9 -35 14 -51 12 -15 -2 -34
3 -42 11 -13 13 -16 12 -27 -5 -11 -19 -14 -19 -30 -4 -15 14 -22 14 -46 3
-20 -9 -23 -14 -12 -18 8 -3 18 -10 22 -15 4 -7 13 -6 24 4 16 13 17 12 11 -4
-4 -10 -7 -21 -7 -23 0 -2 -9 -4 -19 -4 -11 0 -22 -4 -26 -9 -8 -14 -60 -7
-57 7 1 7 -2 12 -8 12 -5 0 -10 7 -10 17 0 9 -3 13 -7 9 -4 -4 -8 -15 -8 -24
0 -17 -17 -19 -60 -8 -11 2 -23 5 -27 5 -5 1 -8 6 -8 11 0 14 43 13 58 -2 9
-9 12 -8 12 6 0 9 -4 15 -9 12 -9 -6 -24 35 -16 43 3 2 5 -1 5 -7 0 -15 36
-16 45 -2 4 6 1 17 -5 25 -9 11 -9 15 -1 15 6 0 11 -5 11 -11 0 -5 5 -7 10 -4
16 10 40 -14 33 -33 -5 -14 -2 -13 14 3 36 36 63 55 63 46 0 -12 29 -41 40
-41 4 0 7 8 5 18 -1 9 4 25 13 35 14 16 14 19 -1 30 -8 6 -17 23 -19 37 -3 22
-7 25 -41 23 -39 -3 -51 11 -17 20 25 6 29 57 4 57 -10 0 -13 6 -9 19 8 25 -4
51 -24 51 -9 0 -22 13 -28 30 -8 20 -18 30 -32 30 -12 0 -21 6 -21 13 0 7 -13
18 -30 24 -25 9 -32 9 -40 -5 -9 -16 -11 -16 -20 1 -20 32 -33 20 -26 -24 4
-27 3 -38 -4 -34 -6 3 -8 10 -6 13 2 4 -4 18 -13 31 -15 20 -21 22 -40 12 -20
-11 -21 -10 -15 16 l7 28 -27 -25 c-26 -23 -28 -24 -40 -8 -7 10 -17 18 -22
18 -5 0 -29 18 -52 40 -39 35 -46 38 -59 25 -21 -21 -32 -19 -43 10 -5 14 -16
25 -24 25 -14 0 -56 45 -56 59 0 4 9 16 19 28 11 11 19 28 18 37 -1 11 13 23
40 36 l43 19 16 -30 c8 -17 18 -29 21 -26 2 3 0 15 -7 26 -7 14 -7 21 0 21 5
0 10 -4 10 -10 0 -5 6 -10 14 -10 8 0 16 -7 20 -15 3 -9 0 -15 -9 -15 -18 0
-20 -21 -3 -38 20 -20 36 -14 73 24 35 35 47 68 22 58 -13 -5 -57 30 -57 46 0
5 7 7 15 4 9 -4 15 0 15 10 0 9 -5 16 -12 16 -6 0 -2 9 10 20 12 12 22 28 21
38 0 10 -3 12 -6 5 -2 -7 -11 -13 -18 -13 -8 0 -25 -11 -38 -24 -25 -25 -55
-21 -44 7 8 21 -2 28 -24 16 -15 -7 -19 -6 -19 5 0 8 -13 17 -30 21 -37 8 -79
41 -90 71 -5 13 -12 52 -16 86 -7 72 -11 81 -29 74 -8 -3 -15 0 -17 6 -2 6
-20 13 -40 15 -32 3 -40 -1 -67 -34 -17 -21 -27 -39 -21 -41 19 -7 10 -22 -12
-19 -12 1 -23 -3 -23 -9 0 -7 -11 -21 -25 -33 -21 -17 -22 -20 -7 -21 10 0 15
5 12 10 -3 6 -2 10 4 10 5 0 13 -4 16 -10 3 -5 40 -10 82 -10 l76 0 -7 -31
c-3 -17 -6 -38 -6 -45 0 -8 -9 -14 -20 -14 -11 0 -20 -4 -20 -10 0 -5 -5 -10
-11 -10 -5 0 -7 5 -4 10 4 6 -9 10 -30 10 -34 0 -37 -2 -31 -23 4 -16 -1 -26
-15 -35 -11 -7 -17 -17 -14 -22 3 -6 -1 -10 -9 -10 -8 0 -17 -8 -20 -17 -3
-10 -4 -6 -2 10 3 29 -8 37 -18 12 -3 -8 -14 -15 -25 -15 -11 0 -23 -4 -26
-10 -3 -5 -16 -10 -29 -10 -20 0 -22 4 -18 31 4 28 8 30 31 26 22 -5 31 0 44
23 16 27 16 29 0 33 -43 11 -83 7 -83 -8 0 -20 -39 -20 -46 0 -15 39 8 82 102
185 140 154 161 182 138 180 -10 -1 -57 -2 -103 -1 l-84 1 6 38 c12 71 12 77
2 77 -20 1 -34 16 -32 35 1 11 3 20 5 20 6 0 62 -65 62 -72 0 -5 18 -8 40 -8
22 0 40 2 40 4 0 1 -5 17 -11 34 -9 27 -14 30 -29 22 -32 -17 -60 -12 -70 14
-11 31 -29 41 -43 27 -17 -17 -24 -13 -31 14 -6 24 -26 36 -26 15 0 -12 -40
-54 -40 -43 0 5 -6 0 -13 -9 -10 -12 -17 -14 -28 -7 -11 8 -11 12 -1 16 16 6
15 19 -4 48 -16 24 -16 24 -37 4 -28 -26 -41 -20 -45 21 -4 38 14 63 28 40 14
-22 16 -11 12 71 -3 70 -6 77 -28 88 -13 6 -24 17 -24 26 0 13 -3 12 -20 -2
-11 -10 -20 -23 -20 -31 0 -7 -8 -12 -17 -10 -10 1 -24 -1 -31 -5 -7 -5 -25
-2 -41 6 -28 14 -29 14 -27 -7 5 -34 22 -69 47 -95 l23 -24 -24 -19 c-13 -10
-29 -17 -37 -14 -7 3 -13 -1 -13 -9 0 -11 -13 -15 -55 -15 l-54 0 -3 63 c-3
54 -5 62 -21 59 -24 -4 -47 15 -47 40 0 11 -5 18 -12 16 -9 -3 -14 -33 -16
-91 l-3 -87 -54 0 -55 0 0 114 c0 119 -4 146 -24 146 -7 0 -11 -24 -12 -67 0
-42 -4 -68 -12 -71 -8 -2 -12 -26 -12 -63 l0 -59 -55 0 -55 0 0 75 c0 53 -5
83 -16 100 -19 29 -34 24 -34 -11 0 -21 4 -24 20 -19 11 4 20 2 20 -4 0 -10
-13 -15 -31 -13 -4 1 -14 -16 -24 -38 -22 -48 -49 -74 -97 -91 -53 -18 -137 2
-176 42 -20 20 -32 27 -37 19 -4 -6 -1 -18 6 -26 11 -14 10 -15 -11 -12 -22 3
-25 9 -27 46 -1 29 3 42 12 42 10 0 14 14 13 49 -2 57 25 115 66 145 22 17 42
21 102 21 41 0 74 3 74 7 0 3 3 13 6 22 4 11 0 16 -13 16 -10 0 -25 6 -31 12
-10 10 -17 10 -31 1 -38 -24 -97 0 -84 34 7 19 21 16 28 -6 3 -10 15 -21 25
-24 16 -4 20 0 20 18 0 23 1 23 44 10 24 -8 46 -11 49 -9 9 10 45 -29 40 -42
-3 -9 2 -14 17 -14 17 0 20 4 15 19 -5 16 0 20 21 23 22 2 30 10 36 34 9 35
36 48 73 34 29 -11 35 -28 28 -79 -5 -37 -4 -41 16 -41 16 0 21 5 19 19 -2 10
5 27 14 38 16 17 16 22 2 47 -16 33 -12 45 11 26 13 -10 15 -9 15 8 0 12 4 24
10 27 19 12 11 54 -12 66 -13 7 -34 24 -48 39 -31 33 -51 41 -67 24 -23 -22
-53 -5 -53 30 0 20 -3 26 -8 18 -5 -7 -16 -10 -25 -6 -10 3 -17 1 -17 -6 0 -6
-4 -8 -10 -5 -15 9 -12 -2 6 -30 19 -29 31 -32 37 -7 4 15 5 14 6 -2 0 -11 10
-30 22 -42 16 -17 18 -27 11 -40 -9 -15 -11 -14 -25 12 -11 20 -16 24 -17 12
0 -23 -5 -23 -31 3 -15 15 -24 18 -28 10 -4 -6 -15 -9 -25 -5 -12 5 -14 10 -6
19 8 9 8 14 0 17 -6 2 -11 18 -13 36 -1 17 -7 32 -13 32 -17 0 -47 37 -39 49
3 6 10 11 16 11 5 0 18 9 29 20 21 21 70 27 70 9 0 -6 6 -9 14 -6 8 3 22 -3
32 -14 10 -11 20 -16 23 -11 9 13 59 23 65 13 9 -14 -16 -28 -66 -35 -26 -4
-51 -12 -54 -18 -5 -8 -1 -9 12 -4 10 4 42 10 69 12 50 5 51 4 75 -35 15 -24
33 -41 44 -41 11 0 28 -8 39 -17 17 -16 20 -16 30 -2 7 9 17 14 23 12 18 -6
54 33 54 58 l1 24 20 -24 c11 -13 31 -30 44 -37 23 -12 25 -11 25 9 -1 29 -19
50 -54 62 -16 6 -31 15 -33 21 -5 16 28 27 41 14 15 -15 47 -12 61 7 11 15 15
15 29 4 15 -13 30 -9 32 7 3 25 19 42 39 42 16 0 25 7 29 26 9 35 5 38 -60 43
-8 1 -7 18 4 56 l15 56 -31 32 c-18 18 -32 38 -32 45 0 7 -12 12 -26 12 -23 0
-25 3 -19 29 4 20 2 32 -8 38 -8 4 -17 17 -19 28 -3 17 -6 15 -18 -12 -17 -37
-30 -42 -37 -14 -7 27 -47 25 -50 -3 -1 -11 -5 -36 -9 -54 -5 -27 -9 -30 -21
-21 -8 7 -10 15 -5 18 5 3 13 25 16 47 7 40 6 42 -21 47 -15 3 -32 1 -38 -4
-13 -13 -25 -11 -25 4 0 14 -35 47 -49 47 -5 0 -11 -7 -15 -15 -3 -8 -12 -15
-20 -15 -13 0 -28 -22 -30 -44 -1 -5 -7 -11 -14 -13 -11 -4 -16 8 -13 35 1 6
-4 12 -11 12 -10 0 -10 2 -1 8 7 4 16 22 19 40 5 25 3 32 -9 32 -11 0 -14 9
-12 33 3 28 6 32 30 30 15 -1 38 -11 49 -22 17 -16 39 -22 93 -24 38 -2 76 -7
83 -12 7 -4 16 -2 20 5 5 9 13 9 27 2 14 -8 23 -8 30 -1 7 7 22 7 45 1 19 -5
47 -8 62 -7 14 2 26 -2 27 -8 0 -7 4 -3 9 8 5 11 9 15 9 10 1 -14 41 -17 41
-4 0 6 9 7 23 3 12 -4 34 -7 50 -6 15 1 27 -2 27 -8 0 -6 7 -6 19 2 15 9 23 9
35 -1 9 -8 16 -9 16 -3 0 5 13 12 30 14 24 4 27 2 19 -9 -14 -17 3 -17 20 0
11 10 13 10 7 0 -4 -8 -1 -13 8 -13 8 0 16 4 18 10 2 6 15 6 39 0 22 -6 46 -7
60 -1 13 4 34 5 46 0 16 -6 27 -3 39 9 12 11 19 13 21 5 4 -12 16 -11 173 14
52 8 109 16 125 18 44 4 188 27 205 33 8 2 37 6 65 8 27 2 53 8 58 13 12 12
64 -6 71 -25 3 -7 12 -11 21 -8 8 3 15 1 15 -5 0 -6 -3 -11 -8 -11 -4 0 -15
-12 -24 -27 -10 -16 -18 -23 -18 -17 0 12 -80 16 -80 4 0 -14 60 -32 85 -26
14 4 25 2 25 -3 0 -6 7 -8 16 -4 9 3 20 0 25 -8 5 -9 9 -10 9 -2 0 7 11 9 31
6 19 -3 35 0 39 7 5 9 17 9 44 2 23 -7 38 -7 42 -1 4 6 11 6 20 -2 17 -14 124
-20 124 -6 0 5 6 4 15 -3 8 -6 19 -9 25 -5 5 3 10 2 10 -3 0 -5 21 -8 47 -6
29 1 51 -2 55 -9 5 -8 8 -5 8 8 1 20 1 20 16 0 12 -16 18 -18 34 -7 14 8 27 9
46 1 15 -5 30 -6 33 -1 10 14 91 15 91 0 0 -9 3 -9 12 0 14 14 42 16 33 2 -3
-5 -1 -10 4 -10 6 0 11 5 11 10 0 14 27 13 32 -1 2 -6 23 -11 46 -11 23 0 42
-4 42 -9 0 -6 10 -3 22 5 15 11 26 12 40 5 13 -7 18 -6 18 3 0 9 3 9 8 2 4 -5
24 -9 45 -8 20 1 37 -1 37 -5 0 -3 25 -6 55 -6 30 0 55 3 55 8 0 4 5 7 11 7 5
0 8 -4 4 -9 -3 -5 -1 -12 4 -15 5 -4 12 -2 15 3 8 12 127 2 145 -13 11 -8 13
-8 8 0 -4 7 3 14 18 17 14 2 28 1 30 -4 3 -4 19 -3 36 3 24 8 33 8 39 -3 6 -9
35 -13 93 -14 46 -1 89 -5 95 -9 5 -3 17 -3 25 0 9 3 25 1 36 -5 17 -10 20 -9
14 5 -5 13 -3 15 8 8 20 -12 35 -14 119 -17 41 -2 80 -6 86 -10 10 -6 37 -8
84 -7 26 1 85 -8 121 -17 19 -6 46 -6 61 -2 16 4 39 6 53 4 14 -1 25 3 25 9 0
7 3 7 8 -1 5 -7 46 -14 107 -18 54 -3 101 -9 104 -13 9 -10 31 -13 31 -4 0 16
96 13 109 -2 9 -10 26 -13 63 -9 33 3 48 1 44 -5 -3 -6 -1 -14 5 -18 7 -4 9
-3 6 3 -4 6 0 14 8 17 22 8 149 -5 156 -16 4 -6 38 -8 85 -4 53 4 72 3 59 -3
-14 -7 -5 -8 30 -4 28 3 58 10 68 15 11 5 17 5 17 -2 0 -5 -5 -10 -12 -10 -28
0 3 -11 46 -16 31 -4 46 -2 46 5 0 8 6 9 18 2 11 -6 24 -6 35 0 11 7 17 6 17
-1 0 -6 10 -8 25 -4 14 3 25 2 25 -2 0 -5 24 -10 54 -10 46 -1 54 1 50 15 -3
9 1 6 8 -7 9 -14 17 -19 24 -12 6 6 19 5 37 -5 16 -8 27 -10 27 -4 0 12 80 9
96 -3 7 -5 23 -3 38 3 20 10 29 10 38 1 15 -15 32 -16 23 -2 -3 6 -1 10 4 10
6 0 11 -3 11 -7 0 -5 15 -8 33 -9 167 -4 242 -10 263 -20 13 -7 24 -10 24 -6
0 12 43 12 58 0 9 -8 16 -8 20 -2 14 20 42 24 43 6 0 -10 3 -12 6 -4 6 15 43
16 43 0 0 -6 3 -9 6 -5 3 3 17 2 29 -3 16 -6 25 -5 28 3 3 9 7 9 18 1 16 -13
52 -15 59 -3 9 13 50 -2 50 -19 0 -13 2 -13 18 1 10 10 22 14 26 10 7 -7 26
-10 126 -19 77 -7 102 -11 123 -18 39 -14 47 -15 47 -6 0 5 7 7 15 4 8 -4 13
-9 11 -13 -3 -4 21 -8 52 -9 93 -3 117 -6 124 -17 5 -6 8 -6 8 3 0 6 5 12 11
12 6 0 9 -6 6 -14 -4 -10 0 -14 14 -11 10 2 23 6 28 10 5 3 12 1 16 -5 3 -5
17 -7 31 -4 13 3 24 2 24 -3 0 -4 16 -8 35 -9 19 0 35 4 35 9 0 6 9 2 20 -8
11 -10 20 -13 20 -7 0 15 66 16 75 2 4 -6 25 -10 48 -8 25 1 42 -3 45 -10 2
-7 13 -10 28 -6 13 3 38 1 55 -5 20 -7 37 -7 49 -1 13 7 21 5 30 -5 7 -9 22
-14 34 -13 43 4 115 -14 119 -31 4 -14 5 -14 6 2 1 19 16 23 26 7 8 -13 52
-13 59 -1 4 5 31 3 65 -5 33 -7 77 -15 99 -16 22 -2 38 -6 35 -10 -2 -5 1 -8
6 -8 6 0 11 6 11 13 0 9 2 9 8 0 4 -7 28 -15 52 -19 25 -4 50 -10 55 -14 6 -4
26 -6 45 -5 19 2 68 -6 108 -17 40 -10 92 -20 115 -21 23 -1 48 -6 55 -11 7
-4 16 -5 19 -2 3 3 17 -1 32 -8 14 -7 43 -14 64 -15 22 -1 50 -9 63 -18 23
-15 24 -14 18 3 -6 18 -6 18 8 0 9 -12 21 -17 32 -13 11 4 16 1 17 -11 0 -10
3 -12 6 -4 7 17 60 15 66 -2 5 -12 13 -13 39 -5 41 11 41 11 33 -2 -4 -6 -1
-9 6 -8 24 5 60 -12 53 -24 -5 -8 -2 -8 7 1 16 15 33 16 23 0 -5 -8 0 -9 14
-6 13 4 22 1 22 -5 0 -8 3 -8 11 0 9 9 18 8 35 -4 13 -8 24 -13 24 -10 0 3 20
0 45 -8 25 -7 57 -12 70 -10 14 1 25 -1 25 -6 0 -5 7 -6 15 -3 10 4 15 0 15
-12 0 -15 2 -16 9 -6 6 10 13 11 27 3 29 -16 115 -37 151 -37 19 1 35 -5 38
-13 3 -7 12 -10 21 -7 9 4 22 2 29 -4 13 -11 52 -21 90 -22 11 -1 28 -8 37
-16 14 -12 20 -12 33 -2 12 10 15 10 15 -3 0 -9 5 -19 12 -23 7 -4 8 -3 4 4
-9 16 -5 15 32 -4 17 -8 61 -17 97 -18 45 -3 72 -9 85 -21 11 -10 20 -15 20
-10 0 4 7 2 15 -5 8 -7 15 -9 15 -5 0 4 6 3 13 -2 6 -6 20 -9 30 -8 9 2 15 0
12 -5 -2 -4 14 -10 37 -13 23 -3 47 -13 53 -21 8 -10 21 -14 40 -10 17 3 31 0
36 -7 4 -7 23 -12 43 -11 20 1 36 -2 36 -6 0 -4 15 -8 33 -7 17 0 38 -6 46
-13 12 -11 15 -11 22 0 6 8 12 9 17 3 6 -9 15 -10 60 -6 9 1 12 291 12 1416
l0 1415 -7090 0 -7090 0 0 -1235z m1218 1116 c24 -13 45 -45 35 -55 -3 -3 -87
-6 -185 -6 l-178 0 0 40 0 39 123 3 c127 3 168 -1 205 -21z m487 -16 l0 -40
-180 0 -180 0 -3 28 c-7 58 -8 58 185 55 l178 -3 0 -40z m880 34 c43 -12 95
-45 95 -60 0 -5 -82 -9 -197 -9 l-198 0 26 26 c14 14 43 31 65 39 47 17 154
19 209 4z m10800 -54 c24 -23 25 -28 25 -175 0 -147 -1 -152 -25 -175 l-24
-25 -536 0 -536 0 -24 25 c-24 23 -25 28 -25 175 0 147 1 152 25 175 l24 25
536 0 536 0 24 -25z m-12135 -149 c0 -8 -15 -26 -32 -40 -37 -29 -41 -13 31
-139 l33 -58 -48 3 -48 3 -49 83 -48 82 -60 0 -59 0 0 -85 0 -85 -40 0 -40 0
0 109 c0 146 -7 141 202 141 130 0 158 -3 158 -14z m448 -18 l-3 -33 -124 -3
c-71 -1 -130 -7 -138 -14 -18 -14 -16 -53 3 -72 12 -13 41 -16 145 -16 l129 0
0 -41 0 -40 -151 3 -151 3 -34 37 c-29 33 -34 45 -34 89 0 45 4 55 34 85 l34
34 147 0 146 0 -3 -32z m253 -47 c43 -112 48 -112 89 -6 13 33 28 66 33 73 11
14 87 17 87 2 0 -29 -76 -198 -98 -219 -22 -20 -33 -22 -75 -18 -26 2 -56 12
-65 21 -20 19 -92 207 -85 219 3 4 23 7 45 5 41 -3 41 -3 69 -77z m390 28 c4
-26 12 -56 19 -69 16 -29 69 -50 128 -50 99 0 136 30 149 125 6 45 6 45 44 45
l39 0 0 -42 c0 -141 -77 -209 -238 -208 -134 1 -202 51 -223 163 -14 77 -9 89
38 85 37 -3 38 -4 44 -49z m-1313 -1914 c7 -7 -31 -55 -44 -55 -8 0 -14 -7
-14 -15 0 -8 7 -15 15 -15 8 0 15 -7 15 -15 0 -18 -21 -20 -38 -3 -9 9 -12 9
-12 0 0 -7 5 -12 11 -12 5 0 7 -5 4 -11 -10 -15 -45 19 -45 43 0 28 -35 22
-62 -10 -22 -26 -26 -28 -57 -17 -38 12 -84 60 -79 82 4 18 71 27 170 24 41
-1 69 2 73 9 6 10 52 6 63 -5z m1758 -279 c3 -14 11 -27 18 -29 19 -8 13 -47
-34 -226 -32 -118 -41 -166 -32 -169 7 -2 12 -8 12 -13 0 -4 -6 -6 -13 -3 -14
5 -41 -62 -31 -77 3 -5 -3 -20 -12 -34 -13 -20 -25 -25 -55 -25 -22 0 -39 1
-39 3 0 1 27 101 60 222 33 121 60 226 60 234 0 8 -8 23 -17 34 -17 19 -17 19
5 13 13 -5 22 -3 22 3 0 6 14 11 31 11 19 0 28 4 23 11 -3 6 -19 9 -35 5 -16
-3 -29 -4 -29 -2 0 3 -3 11 -6 20 -4 11 0 16 14 16 11 0 22 7 26 15 8 23 25
18 32 -9z m268 -103 c-3 -21 -12 -54 -20 -73 -7 -19 -20 -62 -28 -95 -8 -33
-22 -87 -31 -119 -12 -48 -13 -61 -3 -68 10 -6 9 -8 -3 -8 -10 0 -19 -11 -22
-27 -13 -62 -32 -123 -38 -123 -4 0 -9 9 -12 21 -4 15 -11 19 -25 14 -11 -3
-23 -2 -26 3 -2 4 9 57 25 118 16 60 28 116 27 125 -2 9 2 22 8 30 6 8 21 55
34 104 35 138 33 135 79 135 l40 0 -5 -37z m464 -126 c1 -81 -2 -165 -8 -185
-14 -54 -57 -91 -124 -106 -55 -13 -59 -13 -102 11 -24 14 -46 29 -50 34 -3 5
-9 7 -13 4 -5 -2 -16 4 -26 15 -10 11 -13 20 -7 20 6 0 12 -6 15 -12 2 -7 7
-10 11 -7 14 13 -7 39 -33 40 -14 0 -20 3 -13 6 6 2 10 9 6 14 -3 5 -1 9 5 9
5 0 12 -6 15 -12 5 -10 7 -10 12 0 3 7 26 12 57 12 45 0 54 -3 62 -22 7 -17
18 -23 40 -23 43 0 46 34 5 57 -16 9 -30 13 -30 7 0 -6 -4 -7 -10 -4 -16 10
-12 65 5 65 8 0 15 -5 15 -10 0 -6 14 -9 31 -8 l30 2 -1 66 c-1 36 -1 91 -1
123 l1 58 53 -3 52 -3 3 -148z m-1704 -599 c27 1 56 -16 56 -33 0 -19 36 -39
45 -25 8 13 35 13 35 -1 0 -6 -14 -24 -30 -41 -21 -21 -29 -36 -25 -49 5 -14
1 -19 -14 -19 -24 0 -31 -11 -37 -54 -5 -42 22 -60 32 -21 10 41 53 23 57 -24
1 -19 2 -19 28 -4 25 15 29 15 53 -1 60 -39 6 -81 -72 -55 -28 9 -33 15 -29
35 5 30 -8 41 -21 17 -9 -15 -16 -16 -73 -5 -34 6 -66 17 -70 23 -4 6 -11 9
-17 5 -6 -3 -22 -2 -37 4 -23 9 -25 13 -14 26 7 8 15 11 18 6 3 -5 13 -11 23
-15 20 -7 32 32 23 74 -5 24 -3 31 15 37 21 8 21 8 -9 46 -17 21 -31 40 -31
42 0 2 8 13 17 24 12 14 24 18 38 13 11 -3 29 -6 39 -5z m-256 -41 c6 3 12 0
12 -6 0 -6 -7 -11 -16 -11 -22 0 -8 -40 22 -63 13 -10 24 -25 24 -33 0 -8 9
-14 20 -14 25 0 46 -36 30 -54 -9 -11 -19 -11 -58 0 -26 7 -65 18 -88 23 -34
9 -48 21 -78 67 -28 42 -35 59 -26 69 21 26 49 24 69 -3 15 -21 22 -24 32 -15
9 9 9 15 0 27 -14 17 5 28 29 16 8 -4 21 -5 28 -3z m-375 -31 c9 -7 17 -21 17
-30 0 -10 5 -14 10 -11 6 4 10 -5 10 -20 0 -15 4 -24 10 -20 6 3 10 -1 10 -10
0 -9 6 -15 13 -13 14 3 19 -10 11 -35 -4 -13 -12 -17 -28 -13 -11 3 -28 1 -36
-4 -10 -6 -18 -3 -28 11 -18 26 -46 25 -39 -1 6 -24 1 -25 -19 -6 -8 8 -23 12
-36 8 -21 -5 -22 -4 -8 14 8 10 18 21 21 24 3 3 11 15 18 28 7 13 21 22 35 22
13 0 30 7 37 16 11 14 9 19 -11 35 -14 10 -20 19 -15 18 6 0 18 -6 28 -13z
m2020 -240 c5 -7 12 -5 21 7 17 22 22 21 47 -4 12 -12 27 -18 38 -14 10 3 24
-1 30 -9 7 -8 20 -12 29 -9 15 6 15 5 3 -11 -11 -13 -11 -20 -3 -28 18 -18 15
-25 -13 -32 l-26 -7 21 -29 c19 -26 23 -28 50 -18 17 5 38 7 48 3 15 -6 14 -9
-10 -30 -16 -13 -28 -26 -28 -28 0 -3 12 -8 27 -12 15 -3 31 -12 35 -18 5 -7
6 5 3 26 -2 20 0 37 5 37 6 0 10 -6 10 -12 1 -17 41 -63 63 -71 16 -6 17 -8 2
-31 -10 -14 -22 -23 -31 -19 -20 7 -18 -10 7 -57 18 -34 25 -39 45 -34 18 5
24 2 24 -10 0 -9 12 -21 26 -26 28 -11 24 -30 -7 -30 -12 0 -19 -7 -19 -20 0
-16 7 -20 31 -20 28 0 30 -2 25 -30 -2 -16 -1 -32 3 -34 4 -3 5 -21 3 -42 -3
-20 -7 -31 -11 -26 -4 7 -12 7 -20 2 -12 -7 -11 -14 3 -45 15 -31 22 -36 41
-31 32 8 41 -10 19 -35 -19 -21 -19 -21 26 -49 12 -7 13 -11 3 -21 -21 -21
-15 -39 12 -39 28 0 33 -15 8 -24 -15 -6 -15 -8 -1 -22 20 -20 55 -10 63 17 5
16 10 17 27 8 15 -8 22 -8 28 1 5 8 18 10 39 5 26 -6 30 -4 25 10 -4 10 -1 21
7 26 10 6 10 9 2 9 -7 0 -13 5 -13 10 0 6 8 10 19 10 10 0 24 7 31 15 18 21
30 9 25 -25 -2 -17 0 -30 4 -30 12 0 32 -50 25 -61 -3 -5 -15 2 -26 16 -23 29
-36 32 -45 8 -4 -10 -15 -27 -25 -38 -23 -24 -18 -41 11 -38 11 2 21 -2 21 -8
0 -7 11 -9 30 -5 22 4 30 2 30 -9 0 -16 12 -20 23 -8 4 3 0 11 -9 17 -14 10
-13 15 6 39 18 22 24 25 40 15 24 -15 31 -9 23 20 -4 19 -8 20 -27 10 -18 -10
-19 -9 -9 3 7 9 10 27 8 41 -4 23 -2 25 23 20 15 -3 32 -12 39 -21 8 -11 12
-12 13 -3 0 18 20 15 20 -4 0 -12 -7 -14 -30 -9 -38 8 -41 -15 -5 -39 14 -9
25 -24 25 -32 0 -14 -3 -14 -15 -4 -18 15 -20 13 -29 -17 -7 -23 7 -32 19 -13
11 17 25 11 25 -11 0 -16 4 -19 20 -14 23 7 28 -10 5 -19 -17 -6 -21 -56 -4
-56 6 0 9 -9 6 -20 -3 -13 0 -20 8 -20 9 0 13 10 12 27 -2 20 4 28 24 33 23 7
34 1 74 -39 49 -48 83 -101 65 -101 -21 0 -9 -26 21 -44 29 -17 30 -19 13 -37
-17 -19 -17 -20 19 -17 47 3 58 -8 17 -17 -21 -5 -30 -11 -26 -21 3 -8 0 -14
-7 -14 -19 0 -36 -21 -30 -36 4 -12 14 -9 48 11 24 14 48 25 54 25 5 0 13 -17
16 -37 4 -21 19 -67 34 -103 39 -89 50 -238 26 -334 -9 -37 -14 -74 -11 -82 3
-9 1 -46 -5 -82 -6 -37 -12 -93 -13 -125 -2 -59 -13 -77 -47 -77 -9 0 -19 -9
-22 -20 -6 -23 -27 -27 -27 -5 0 8 6 15 13 15 8 0 7 4 -3 10 -8 5 -29 10 -47
10 -17 0 -33 6 -36 13 -3 9 -9 9 -25 0 -12 -7 -45 -10 -88 -7 -47 3 -70 0 -76
-9 -6 -9 -8 -9 -8 1 0 9 -36 11 -162 7 -90 -3 -194 -9 -233 -13 -38 -4 -117
-7 -175 -7 l-105 0 -97 48 c-74 36 -98 53 -98 68 0 12 -7 19 -20 19 -10 0 -23
6 -27 14 -7 12 -89 25 -178 28 -57 2 -152 -10 -188 -23 -20 -7 -39 -10 -42 -7
-4 3 -7 35 -8 70 -3 72 -25 118 -57 118 -11 0 -20 -4 -20 -10 0 -5 -10 -10
-22 -10 -43 0 -50 -13 -46 -77 5 -61 -6 -92 -34 -97 -7 -1 -19 -5 -26 -10 -21
-13 -26 1 -8 19 11 11 13 22 7 32 -11 21 -2 53 14 53 8 0 16 -8 19 -17 2 -10
3 7 1 37 -2 30 -4 63 -5 73 0 15 -3 16 -21 7 -11 -7 -28 -8 -37 -4 -13 6 -10
8 13 13 25 5 30 12 32 36 1 17 5 55 8 85 9 80 8 207 -1 222 -4 7 -7 50 -5 95
2 70 0 83 -13 83 -13 0 -13 3 4 20 17 17 19 33 18 132 0 62 5 167 11 233 12
118 16 132 89 308 8 20 26 43 40 50 18 9 26 21 27 45 2 18 9 41 17 50 8 9 15
28 16 41 1 32 18 49 34 33 22 -22 41 -14 34 13 -4 14 -2 25 4 25 5 0 10 -4 10
-10 0 -5 6 -10 14 -10 7 0 16 -9 19 -20 4 -17 11 -19 39 -14 18 4 34 8 36 9 1
1 -5 16 -14 33 -17 36 -12 52 17 52 11 0 22 7 25 15 9 22 23 18 17 -5 -7 -26
19 -36 66 -24 31 8 37 6 46 -10 13 -25 31 -31 38 -11 11 26 -3 42 -46 55 -23
6 -53 17 -67 22 -14 6 -41 12 -62 14 -33 3 -38 0 -53 -31 -20 -43 -38 -46 -23
-4 8 22 7 34 -1 42 -16 16 -14 32 3 18 17 -14 41 11 32 34 -3 8 -2 15 2 15 9
0 32 50 32 70 0 9 -4 20 -10 26 -5 5 -6 15 0 24 8 13 11 12 25 -5 8 -11 14
-31 12 -45 -1 -19 3 -26 20 -28 36 -5 41 39 8 72 -34 34 -29 55 19 82 38 22
63 21 79 0z m-460 -103 c27 -4 37 -2 37 8 1 9 7 6 19 -8 11 -13 24 -23 30 -23
6 0 11 -9 11 -20 0 -11 -4 -20 -10 -20 -5 0 -10 -9 -10 -21 0 -18 -4 -20 -30
-14 -20 4 -30 3 -30 -5 0 -8 -5 -7 -15 2 -36 32 -45 38 -65 38 -24 0 -25 -8
-5 -37 10 -14 31 -24 61 -29 25 -3 48 -12 50 -18 2 -6 -12 -49 -32 -96 -20
-47 -46 -111 -58 -142 -11 -32 -23 -58 -26 -58 -10 0 -40 158 -39 213 0 58 24
221 35 239 3 5 13 6 23 3 9 -4 33 -9 54 -12z m2425 -43 c7 0 12 -4 12 -10 0
-5 -9 -10 -19 -10 -18 0 -19 -2 -4 -30 12 -25 18 -29 29 -19 15 12 17 9 28
-43 4 -16 13 -28 21 -28 22 0 18 -18 -6 -31 -15 -8 -19 -8 -15 0 4 6 0 11 -11
11 -30 0 -66 30 -54 44 14 16 -19 87 -38 83 -23 -3 -23 -21 0 -46 18 -19 19
-25 8 -32 -19 -12 -29 -11 -29 1 0 6 -7 10 -15 10 -8 0 -15 -7 -15 -15 0 -8
-5 -15 -11 -15 -7 0 -9 10 -7 25 3 14 2 28 -3 30 -4 3 0 23 9 45 13 29 23 40
39 40 12 0 25 5 28 11 5 7 13 5 24 -5 10 -9 23 -16 29 -16z m-875 -672 c3 -10
8 -10 17 -2 18 18 50 4 57 -25 3 -14 11 -29 17 -33 6 -5 3 -8 -9 -8 -12 0 -27
6 -34 13 -11 10 -13 9 -9 -3 3 -8 21 -23 41 -34 57 -30 73 -106 23 -106 -18 0
-66 32 -66 44 0 2 10 3 23 2 12 -1 25 3 29 9 11 15 10 35 -2 35 -5 0 -10 -7
-10 -16 0 -12 -7 -14 -32 -9 -42 10 -69 42 -65 78 2 15 0 27 -4 27 -4 0 -5 9
-2 20 6 23 19 26 26 8z m1299 -104 c-2 -14 -11 -28 -18 -31 -8 -3 -14 -14 -14
-24 0 -11 -7 -19 -16 -19 -10 0 -14 -6 -11 -14 3 -8 -1 -17 -10 -20 -14 -6
-13 -9 1 -31 15 -22 15 -25 1 -25 -13 0 -14 -4 -5 -20 6 -11 17 -20 25 -20 22
0 18 -33 -5 -48 -14 -8 -20 -9 -20 -1 0 7 -9 9 -25 5 -18 -5 -27 -1 -35 13
-14 26 7 39 24 15 7 -9 18 -14 24 -10 17 10 15 26 -4 26 -8 0 -22 7 -30 15
-26 25 -40 18 -41 -22 -1 -26 -8 -42 -22 -52 -12 -7 -21 -19 -21 -26 0 -8 -9
-10 -25 -7 -24 4 -36 32 -14 32 6 0 9 6 6 14 -3 7 0 19 6 25 9 10 7 16 -7 27
-17 12 -14 17 10 13 3 0 16 7 30 16 14 9 32 14 39 11 8 -3 17 -1 20 4 4 6 15
10 26 10 24 0 24 12 0 27 -16 10 -20 9 -24 -9 -8 -28 -25 -14 -20 16 3 13 0
27 -6 30 -15 10 -70 -34 -70 -56 -1 -22 -21 -34 -21 -13 0 8 -7 18 -15 21 -9
4 -15 19 -15 39 0 19 -4 37 -10 40 -19 12 -10 22 15 18 21 -5 23 -9 18 -35 -5
-24 -3 -30 8 -26 8 2 18 14 24 26 13 30 54 32 88 5 40 -32 59 -31 47 3 -14 35
-12 42 5 20 18 -24 39 -12 25 15 -9 16 -7 19 10 19 11 0 23 7 26 15 10 26 32
17 26 -11z m-834 -356 c14 0 22 -6 22 -18 0 -9 9 -28 21 -41 l21 -24 -21 -3
c-12 -2 -18 -9 -15 -16 4 -10 -2 -12 -19 -9 -20 4 -25 1 -24 -14 1 -10 -5 -18
-13 -18 -8 0 -15 9 -15 19 0 25 -25 34 -26 9 0 -10 -2 -30 -4 -45 -2 -15 1
-30 6 -33 5 -4 9 1 9 9 0 9 3 15 8 14 4 0 16 3 26 7 13 6 21 4 24 -4 3 -8 8
-9 16 -2 8 7 21 6 39 -4 15 -7 29 -10 32 -5 3 5 12 7 20 3 9 -3 21 0 28 6 8 6
24 12 37 14 12 2 29 12 38 23 10 13 16 15 19 6 3 -7 12 -19 20 -28 19 -19 9
-31 -12 -14 -29 24 -25 4 5 -25 24 -23 30 -25 30 -11 0 10 5 14 11 11 6 -4 8
-14 5 -22 -4 -8 6 -27 22 -43 15 -15 37 -56 50 -91 13 -35 30 -79 38 -97 9
-18 24 -78 35 -134 11 -56 26 -125 34 -153 14 -49 21 -170 13 -209 -6 -25 -39
-37 -56 -20 -9 10 -20 11 -39 3 -15 -5 -34 -7 -42 -4 -9 4 -72 9 -140 11 -69
2 -129 9 -136 14 -6 5 -16 5 -25 0 -26 -17 -58 -11 -78 15 -25 32 -41 32 -34
0 4 -22 1 -25 -19 -23 -23 3 -24 0 -27 -59 -2 -50 0 -63 11 -63 8 0 18 7 21
16 4 9 9 14 13 11 9 -10 -18 -37 -37 -37 -12 0 -18 -8 -18 -22 0 -31 -25 -98
-36 -98 -5 0 -6 17 -2 38 3 22 3 42 -1 46 -4 3 -8 16 -10 29 -8 48 -10 73 -12
102 l-1 30 -21 -25 -21 -25 6 52 c3 29 11 63 18 75 13 24 16 35 25 81 4 22 8
25 19 16 17 -14 18 -29 2 -66 -13 -31 -21 -101 -13 -120 20 -54 77 130 58 190
-5 18 -6 44 -2 60 4 15 5 49 3 75 -9 109 -12 312 -3 306 11 -7 11 -1 0 29 -8
21 -7 24 7 20 21 -5 26 47 12 126 -11 60 -4 71 53 93 l29 11 -26 22 c-33 28
-35 50 -3 40 12 -4 32 -7 45 -7z m585 -187 c3 -12 -1 -22 -10 -25 -9 -4 -13
-17 -11 -38 3 -31 1 -33 -27 -31 -16 1 -22 -1 -13 -3 19 -6 40 -58 31 -79 -4
-11 -1 -13 13 -8 16 5 17 4 8 -8 -7 -8 -15 -48 -18 -89 -10 -117 -27 -230 -37
-236 -17 -10 -69 142 -74 218 -1 24 -4 43 -5 43 -6 0 -13 67 -14 140 -1 65 2
80 14 80 8 0 19 5 23 10 5 6 6 -2 3 -17 -5 -21 -2 -28 8 -28 10 0 14 9 13 26
-1 19 3 27 15 29 10 2 20 -1 24 -6 8 -14 24 0 24 22 0 25 26 25 33 0z m310
-41 c6 -25 -2 -60 -15 -60 -5 0 -8 -6 -7 -12 1 -7 -2 -21 -6 -32 -5 -10 -4
-26 1 -35 11 -18 10 -148 0 -159 -15 -14 -24 24 -24 94 0 66 -2 75 -27 101
-22 22 -26 24 -20 8 14 -39 18 -85 7 -85 -14 0 -62 84 -62 109 0 22 24 29 35
11 12 -20 25 -10 19 14 -5 23 -3 25 28 23 18 -1 39 -6 46 -10 17 -11 15 8 -3
26 -11 12 -12 17 -2 20 21 9 25 8 30 -13z m-178 -69 c-3 -5 5 -21 17 -34 28
-30 70 -114 91 -182 24 -78 32 -149 32 -298 0 -148 -5 -162 -52 -151 -47 12
-216 9 -221 -4 -7 -22 -22 -1 -22 32 0 18 -3 36 -6 39 -4 4 -9 27 -11 53 -3
35 0 49 13 58 9 7 14 19 12 27 -3 8 -1 22 4 32 5 9 11 66 14 125 3 59 10 109
15 110 5 2 9 8 9 14 0 6 -7 8 -15 4 -19 -7 -19 -7 1 51 11 33 13 48 5 51 -17
6 -3 22 19 22 10 0 25 6 32 13 13 12 60 45 66 46 2 1 1 -3 -3 -8z m-2803 -585
c3 -13 1 -31 -4 -40 -6 -11 -3 -19 10 -27 17 -11 18 -15 6 -38 -14 -27 -12
-37 5 -26 6 3 11 14 11 24 0 10 6 23 13 28 17 13 99 15 128 4 20 -8 15 -10
-31 -11 -63 0 -86 -11 -77 -34 7 -18 -36 -41 -55 -30 -8 5 -9 -3 -5 -24 5 -24
3 -32 -8 -32 -8 0 -15 4 -15 10 0 5 -7 7 -15 4 -8 -4 -15 -1 -15 5 0 7 7 14
15 17 19 8 19 19 -1 38 -8 9 -18 31 -21 51 -5 31 -3 36 22 45 21 8 25 13 16
24 -12 14 -4 49 9 41 4 -3 10 -16 12 -29z m-395 -170 c-3 -8 2 -17 11 -21 16
-6 15 -8 -2 -21 -18 -13 -18 -15 -3 -32 20 -22 18 -53 -6 -76 -9 -10 -17 -22
-17 -27 0 -5 -9 -9 -19 -9 -17 0 -28 -17 -37 -52 -1 -5 -2 -10 -3 -13 0 -3 -7
0 -15 7 -9 9 -11 19 -5 30 6 10 5 19 -1 23 -15 9 -1 27 16 21 17 -7 18 6 2 23
-11 11 -10 13 4 8 10 -3 20 -2 23 3 3 5 13 6 22 3 13 -5 15 -2 11 15 -4 12 -2
22 3 22 5 0 9 4 9 8 0 5 -28 4 -61 -1 -45 -7 -63 -15 -66 -27 -3 -12 -11 -16
-24 -13 -17 5 -20 9 -19 31 1 4 10 5 22 4 16 -3 19 0 15 13 -9 21 22 33 35 14
8 -11 9 -10 4 4 -3 9 -1 17 4 17 5 0 13 12 16 26 5 20 11 24 28 20 12 -3 28
-1 36 4 20 13 23 12 17 -4z"/>
<path d="M11823 4962 c-6 -4 -14 -19 -17 -32 -6 -35 -35 -90 -47 -90 -15 0
-23 30 -10 43 20 20 13 38 -14 32 -14 -3 -36 -7 -49 -10 -15 -3 -26 -14 -30
-30 -5 -21 -12 -25 -34 -23 -27 3 -54 27 -46 40 11 17 -20 6 -48 -17 -33 -27
-89 -46 -139 -44 -19 0 -51 -2 -72 -5 -26 -3 -37 -1 -34 7 2 7 15 11 28 9 20
-2 17 1 -13 20 -28 16 -39 31 -44 55 -7 36 -15 40 -37 19 -9 -9 -14 -31 -12
-55 l2 -41 -53 0 c-52 0 -54 1 -54 26 0 26 -2 25 -35 -17 -19 -24 -35 -47 -35
-50 0 -3 11 -11 25 -17 14 -6 24 -17 23 -23 -2 -6 3 -14 10 -16 15 -6 16 19 0
35 -7 7 -8 12 -4 12 5 0 3 7 -4 15 -10 12 -10 15 3 15 9 0 18 -14 23 -37 12
-57 12 -57 -31 -55 -87 6 -86 6 -89 -32 -1 -28 -32 -37 -42 -12 -3 9 -23 14
-56 15 -28 0 -52 2 -54 4 -1 1 -4 14 -6 29 -5 34 -18 49 -18 20 0 -12 -4 -22
-10 -22 -12 0 -13 -27 -2 -32 5 -1 12 -15 15 -29 5 -19 3 -26 -9 -26 -9 0 -14
8 -13 21 3 31 -21 85 -41 96 -26 14 -43 13 -33 -2 4 -7 6 -21 4 -32 -1 -10 2
-15 7 -12 6 4 14 1 18 -6 4 -7 4 -10 -1 -6 -9 9 -38 -42 -29 -51 3 -3 12 3 20
13 19 27 30 12 15 -20 -9 -21 -14 -24 -26 -14 -17 14 -36 5 -29 -14 6 -15 -29
-31 -45 -22 -5 3 -14 -1 -21 -8 -9 -12 -6 -17 15 -28 24 -13 25 -16 11 -27
-20 -17 -21 -35 -1 -27 8 3 19 -3 25 -13 6 -13 17 -17 30 -14 21 6 28 -12 8
-20 -18 -6 -49 4 -43 13 9 15 -14 21 -35 10 -14 -8 -20 -8 -20 0 0 6 -4 8 -10
5 -5 -3 -10 -1 -10 5 0 7 -7 9 -16 6 -24 -9 -54 3 -62 24 -5 14 -11 17 -22 10
-13 -8 -13 -11 -1 -19 8 -5 10 -14 6 -22 -6 -9 -3 -11 8 -6 20 7 22 -4 5 -21
-18 -18 -19 -45 -1 -64 10 -11 12 -18 5 -18 -7 0 -12 -6 -12 -14 0 -16 -49
-19 -68 -3 -10 8 -16 7 -22 -4 -7 -10 -1 -21 18 -37 l27 -24 -22 -18 c-13 -10
-23 -25 -23 -33 0 -15 30 -46 30 -31 0 5 5 1 11 -9 9 -15 7 -23 -10 -38 -23
-22 -20 -42 4 -32 10 3 15 -2 15 -16 0 -24 -10 -27 -28 -9 -18 18 -28 0 -13
-23 15 -25 7 -37 -14 -19 -12 10 -15 10 -15 0 0 -8 -3 -10 -7 -7 -3 4 -12 2
-19 -4 -8 -7 -14 -7 -19 1 -10 15 4 30 21 23 14 -5 15 -3 5 15 -10 19 -9 22 9
22 23 0 26 13 6 29 -10 9 -21 9 -42 0 -16 -7 -38 -12 -49 -13 -14 -1 -19 -7
-18 -23 1 -11 -4 -24 -13 -27 -11 -4 -14 -1 -9 13 3 11 1 22 -5 26 -6 4 -9 1
-8 -7 2 -8 -7 -13 -24 -13 -35 -1 -60 -23 -53 -46 4 -11 2 -19 -4 -19 -6 0
-11 8 -11 18 0 21 -29 64 -30 44 0 -8 -10 -22 -22 -31 -22 -18 -18 -41 8 -41
8 0 14 -9 14 -20 0 -25 -10 -25 -61 0 -50 23 -79 12 -71 -28 l5 -25 14 24 c9
14 12 16 9 6 -7 -22 29 -56 58 -57 18 0 18 -1 1 -20 -10 -11 -14 -20 -9 -20
15 0 15 -50 0 -71 -12 -18 -14 -18 -20 -4 -10 27 -76 -5 -76 -36 0 -11 48 -17
58 -7 6 6 12 5 17 -2 8 -13 -25 -41 -39 -32 -17 10 -56 11 -56 1 0 -5 -4 -9
-9 -9 -5 0 -7 10 -4 23 6 24 9 26 -47 -40 -5 -7 -10 -19 -10 -27 0 -8 -4 -18
-10 -21 -5 -3 -10 -16 -9 -28 l0 -22 16 23 c22 31 34 28 27 -8 -6 -29 -6 -29
25 -17 17 6 31 16 31 22 0 7 20 11 49 11 45 0 48 -1 30 -13 -22 -16 -26 -35
-6 -27 8 3 25 0 40 -5 21 -8 28 -7 36 7 9 15 10 14 11 -5 0 -19 -5 -23 -34
-23 -39 0 -57 -27 -32 -46 9 -6 13 -14 9 -18 -4 -4 -1 -11 7 -16 8 -5 11 -12
7 -17 -4 -4 -17 -2 -27 5 -26 16 -33 15 -26 -3 3 -8 1 -15 -4 -15 -6 0 -10 7
-10 17 0 15 -2 15 -19 -1 -10 -9 -32 -18 -47 -19 -16 -1 -28 -6 -27 -10 5 -17
22 -41 23 -32 0 13 40 17 40 4 0 -5 7 -9 16 -9 10 0 14 6 11 15 -4 8 -2 17 3
20 4 3 10 0 12 -6 2 -7 18 -12 36 -13 18 0 32 -4 32 -8 0 -12 58 -9 62 2 4 13
178 23 178 10 0 -14 -62 -28 -82 -19 -24 13 -40 11 -35 -3 2 -7 10 -13 17 -13
7 0 15 -6 18 -13 2 -7 -2 -10 -12 -6 -8 3 -25 -4 -38 -16 -19 -18 -20 -20 -4
-14 14 5 17 4 12 -5 -9 -14 12 -71 26 -71 5 0 15 13 21 30 9 24 15 29 32 23
11 -4 28 -7 38 -7 9 0 17 -4 17 -9 0 -5 -13 -7 -30 -3 -28 5 -30 3 -30 -24 0
-16 5 -32 10 -35 7 -4 6 -13 -1 -26 -6 -12 -8 -23 -5 -27 3 -3 6 0 6 6 0 7 6
12 14 12 15 0 16 43 3 57 -15 14 -6 22 16 14 82 -33 88 -34 75 -5 -9 18 -14
21 -25 13 -10 -9 -13 -7 -13 9 0 11 9 23 23 27 18 6 12 9 -28 14 l-50 7 55 10
c33 6 54 15 52 22 -1 7 3 12 9 12 5 0 8 4 4 9 -3 5 -1 12 4 16 6 3 8 12 4 20
-3 9 1 15 11 15 10 0 16 -8 16 -21 0 -17 4 -20 24 -15 16 4 32 -1 47 -14 13
-11 20 -19 16 -20 -4 0 5 -11 20 -24 15 -13 24 -28 20 -32 -4 -5 -18 3 -30 18
-23 27 -57 44 -57 28 0 -6 -11 -10 -24 -10 -20 0 -23 -5 -22 -32 2 -32 19 -48
31 -29 3 6 15 11 27 11 18 0 20 -4 14 -32 -5 -24 -1 -37 16 -55 12 -13 30 -23
40 -23 20 0 24 -16 6 -23 -7 -3 -3 -6 8 -6 12 -1 25 -8 28 -17 8 -22 8 -22
-41 -12 -40 8 -58 31 -33 40 6 2 -6 12 -27 23 -21 11 -41 24 -45 30 -10 14
-19 0 -12 -19 3 -9 11 -13 17 -9 6 3 3 -4 -6 -18 -18 -25 -22 -40 -9 -38 4 1
21 1 37 0 23 -1 27 -3 15 -11 -12 -8 -11 -10 7 -10 35 0 53 -11 53 -31 0 -11
-7 -22 -15 -25 -22 -9 -18 -34 5 -34 11 0 20 -5 20 -11 0 -8 -12 -10 -34 -6
-24 4 -39 1 -47 -9 -7 -8 -17 -13 -24 -11 -6 3 -19 -1 -28 -8 -16 -12 -16 -14
-2 -29 15 -14 15 -16 1 -16 -26 0 -30 -1 -43 -12 -7 -6 -11 -14 -8 -18 3 -4
-7 -16 -20 -26 -37 -28 -33 -46 8 -32 17 6 37 16 43 24 8 10 13 9 22 -7 7 -10
9 -18 5 -17 -14 4 -53 -13 -53 -22 0 -5 -7 -7 -15 -4 -27 11 -45 -16 -45 -63
0 -31 4 -43 13 -40 7 2 11 18 9 39 -3 45 26 57 60 24 25 -22 32 -26 48 -26 6
0 10 -7 10 -16 0 -11 6 -13 19 -9 10 3 25 -1 33 -8 8 -8 28 -18 46 -22 17 -3
34 -11 38 -16 3 -6 -4 -7 -18 -4 -16 4 -29 1 -37 -9 -16 -20 -31 -21 -31 -2 0
15 -56 30 -74 19 -6 -4 -29 -10 -51 -13 -32 -4 -41 -10 -43 -27 -2 -13 1 -23
6 -23 23 0 42 13 42 29 1 14 2 14 14 -2 12 -16 17 -16 35 -5 29 18 44 0 26
-32 -32 -56 -32 -62 4 -65 11 -1 26 -7 35 -14 13 -11 17 -11 22 3 3 9 10 13
16 10 5 -4 4 -13 -5 -22 -11 -14 -11 -22 -2 -39 6 -13 14 -20 18 -17 3 3 12 2
19 -2 18 -12 78 -13 78 -2 0 5 -4 6 -10 3 -5 -3 -10 1 -10 9 0 9 -3 15 -7 14
-5 -2 -17 6 -28 17 -19 19 -21 36 -16 112 1 6 9 14 19 16 13 4 11 5 -5 6 -13
0 -23 6 -23 11 0 12 47 14 52 3 2 -5 19 -16 38 -25 29 -14 31 -17 13 -17 -31
-1 -29 -21 2 -21 15 0 25 -6 25 -14 0 -17 -22 -26 -47 -20 -16 5 -19 0 -17
-28 1 -19 11 -40 24 -50 30 -24 40 -23 40 5 0 16 9 28 25 35 14 6 25 17 25 24
0 9 3 8 10 -2 6 -9 10 -10 10 -3 0 15 66 37 86 29 9 -3 25 1 37 9 12 8 28 15
37 15 8 0 27 6 42 14 23 12 30 12 58 -5 24 -15 29 -23 21 -33 -8 -9 -7 -22 1
-44 14 -35 44 -46 33 -12 -5 14 -2 20 9 20 9 0 16 -5 16 -10 0 -20 -29 -68
-45 -74 -23 -9 -25 -8 -25 9 0 21 -28 7 -46 -24 -8 -14 -13 -18 -10 -8 6 20 2
21 -25 7 -31 -17 -23 -33 15 -28 21 2 34 0 33 -7 -1 -5 9 -9 21 -7 15 1 22 -2
19 -10 -2 -7 -14 -12 -26 -11 -11 2 -21 -3 -21 -10 0 -12 -17 -15 -125 -20
-22 -2 -30 -7 -30 -21 0 -11 -7 -21 -15 -24 -8 -3 -25 -16 -37 -31 -20 -24
-22 -25 -35 -8 -11 15 -17 16 -46 5 -29 -11 -33 -16 -28 -40 3 -16 1 -28 -4
-28 -6 0 -10 8 -11 18 0 9 -3 12 -6 5 -3 -10 -9 -10 -24 0 -10 6 -19 16 -19
22 0 5 -13 19 -28 30 -23 17 -40 19 -117 17 -74 -2 -96 -7 -132 -28 -34 -20
-47 -23 -63 -14 -15 8 -33 7 -72 -5 -28 -8 -54 -11 -57 -7 -3 5 -23 12 -43 15
-30 4 -42 1 -62 -18 -14 -13 -26 -32 -27 -42 0 -10 -2 -28 -5 -41 -6 -32 31
-47 93 -36 67 11 76 11 90 2 6 -5 19 -5 30 0 66 32 78 40 75 50 -1 7 2 12 8
12 5 0 10 -6 10 -14 0 -18 31 -29 54 -20 18 7 46 -12 46 -32 0 -7 -10 -15 -22
-17 -13 -2 -4 -5 20 -6 47 -1 52 10 26 48 -12 17 -13 26 -5 34 8 8 11 7 11 -6
0 -10 8 -17 19 -17 11 0 23 -5 26 -11 4 -6 14 -8 22 -5 10 4 13 0 11 -16 -4
-29 12 -32 129 -23 76 6 93 10 89 21 -3 8 3 23 14 34 29 29 43 26 39 -6 0 -3
8 -12 18 -19 13 -9 22 -10 30 -3 9 7 13 7 13 0 0 -7 19 -11 45 -10 39 0 48 5
60 27 l13 26 11 -27 c9 -25 13 -26 85 -26 42 0 81 -4 87 -8 6 -3 4 5 -6 19
-16 25 -16 25 4 20 17 -4 21 -1 22 18 l0 24 10 -25 c6 -14 12 -37 14 -52 l4
-26 -122 -2 c-67 -1 -142 -1 -167 -1 -25 0 -198 -5 -385 -10 -593 -16 -664
-16 -673 -7 -6 6 -19 5 -33 -2 -20 -10 -22 -10 -11 1 23 24 12 31 -40 25 -29
-3 -84 -8 -123 -11 -89 -8 -105 -13 -85 -25 11 -7 7 -10 -15 -10 -23 0 -27 3
-15 10 11 7 5 10 -22 10 -21 0 -38 -4 -38 -10 0 -5 -7 -10 -16 -10 -8 0 -12 4
-9 10 4 6 -7 10 -25 10 -18 0 -29 -4 -25 -10 3 -5 0 -10 -8 -10 -8 0 -29 -3
-46 -6 -26 -6 -30 -4 -25 10 4 11 1 16 -11 16 -11 0 -15 -5 -11 -15 5 -14 -5
-19 -31 -16 -7 1 -13 -3 -13 -9 0 -8 95 -10 348 -5 345 5 771 15 972 21 360
10 550 12 550 3 0 -5 13 -3 30 6 27 14 30 14 40 -4 16 -30 12 -41 -12 -40 -61
2 -224 -13 -233 -22 -7 -7 -4 -15 8 -23 16 -12 16 -14 1 -20 -23 -9 -36 2 -29
25 7 21 -10 27 -18 7 -4 -9 -6 -7 -6 3 -1 14 -20 15 -148 14 -82 -2 -179 -4
-218 -6 -47 -3 -74 0 -83 9 -18 16 -31 7 -25 -17 3 -10 0 -22 -7 -26 -7 -4
-10 0 -8 11 4 25 -43 32 -62 10 -16 -21 -51 -21 -44 -1 5 12 -3 14 -39 13 -55
-3 -53 -22 4 -40 27 -8 36 -14 27 -19 -7 -5 -21 -6 -30 -4 -10 3 -27 8 -38 11
-11 3 -20 1 -20 -5 0 -5 16 -13 35 -17 19 -3 35 -10 35 -15 0 -5 9 -9 20 -9
25 0 70 -21 70 -32 0 -5 4 -7 9 -3 5 3 17 -5 25 -17 15 -20 14 -23 -2 -32 -9
-5 -25 -18 -34 -29 -12 -13 -18 -15 -18 -7 0 7 -7 22 -17 32 -22 25 -8 36 17
13 19 -17 20 -17 20 0 0 10 -10 26 -22 36 -23 21 -38 24 -38 9 0 -16 -37 -12
-44 5 -5 13 -9 13 -26 3 -11 -7 -20 -18 -20 -23 0 -6 -6 -20 -14 -30 -12 -17
-14 -16 -18 14 -3 24 -1 31 9 27 17 -7 17 16 1 33 -11 11 -10 12 1 6 9 -5 12
-4 8 2 -11 18 -46 22 -55 7 -7 -12 -11 -11 -31 2 l-22 16 20 19 c27 25 39 24
16 -1 -10 -11 -16 -23 -12 -26 8 -8 47 14 47 27 0 6 5 7 10 4 9 -6 12 -2 14
27 1 19 -184 20 -191 1 -3 -7 0 -19 6 -27 6 -7 8 -16 4 -19 -3 -4 0 -7 9 -7 8
0 15 -6 15 -13 0 -8 -14 -12 -37 -12 -33 0 -37 2 -37 27 0 16 4 28 9 28 10 0
11 30 1 30 -5 1 -27 4 -49 9 -36 7 -41 6 -37 -9 3 -10 -2 -20 -11 -23 -10 -4
-16 -1 -16 8 0 8 -7 15 -16 15 -10 0 -14 -7 -12 -20 2 -12 7 -20 12 -20 5 1
12 -4 17 -11 6 -10 11 -10 25 2 24 20 64 19 64 -2 0 -22 -29 -33 -36 -14 -9
22 -23 18 -34 -7 -5 -13 -9 -18 -9 -11 -1 14 -104 28 -123 17 -7 -5 -20 -9
-28 -11 -8 -1 -16 -7 -18 -13 -2 -5 -8 -8 -13 -5 -5 4 -6 0 -3 -8 9 -24 -14
-29 -35 -8 -13 13 -18 27 -14 38 6 16 4 16 -16 -1 -16 -15 -24 -17 -33 -8 -7
7 -21 12 -32 12 -17 0 -18 2 -6 10 18 11 16 12 -32 15 -20 1 -37 -1 -36 -4 2
-18 -3 -31 -12 -31 -5 0 -7 7 -3 17 5 13 2 15 -15 11 -12 -4 -25 -2 -28 3 -3
5 -14 9 -25 9 -10 0 -19 5 -19 11 0 7 14 10 35 7 28 -3 35 -1 33 11 -2 12 -15
15 -53 12 -28 -1 -54 -6 -59 -11 -12 -12 2 -30 18 -24 17 6 29 -23 14 -32 -7
-4 -14 -2 -16 4 -2 7 -8 9 -14 6 -6 -4 -13 -1 -17 5 -5 7 -15 4 -31 -11 -14
-13 -28 -22 -33 -20 -5 1 -6 -7 -2 -18 4 -11 2 -20 -4 -20 -7 0 -12 -27 -12
-67 l-1 -68 -8 55 c-5 30 -7 57 -5 60 2 4 6 60 9 126 6 145 15 225 29 242 6 8
6 12 -2 12 -7 0 -9 5 -6 10 4 6 10 8 15 5 16 -10 42 8 37 26 -3 11 2 19 17 23
11 3 23 1 24 -4 2 -6 9 -10 15 -10 5 0 7 3 4 6 -3 4 2 18 13 32 11 13 17 28
14 33 -11 18 7 30 24 17 14 -11 15 -10 9 5 -4 10 -7 20 -7 22 0 2 -10 1 -22
-1 -21 -4 -21 -4 -3 5 12 5 25 5 32 -1 7 -6 14 -5 18 2 4 6 13 9 21 6 18 -7
46 3 39 14 -3 4 2 11 11 14 10 4 14 14 11 26 -4 17 0 20 25 20 27 0 29 2 17
16 -11 14 -11 18 2 28 8 6 13 19 11 29 -2 9 1 17 7 17 6 0 11 5 11 10 0 6 -6
10 -14 10 -7 0 -21 11 -30 25 -9 13 -26 33 -38 45 -20 18 -20 20 -3 20 17 0
17 1 1 19 -13 15 -14 20 -4 24 8 4 7 6 -4 6 -22 1 -24 31 -2 31 8 0 23 -4 32
-9 14 -7 17 -4 18 21 1 17 7 34 15 39 11 6 11 11 1 21 -20 20 -14 29 16 23 15
-3 21 -2 15 1 -10 4 -9 10 4 22 16 16 15 17 -4 20 -12 2 -23 12 -26 22 -3 12
0 17 8 14 17 -7 29 27 13 37 -9 6 -5 15 15 33 15 14 27 28 27 33 0 4 -5 2 -12
-5 -7 -7 -19 -12 -27 -12 -22 0 -50 -30 -44 -46 3 -8 0 -14 -7 -14 -7 0 -10 8
-7 20 3 10 -1 24 -9 31 -16 13 -19 33 -4 24 17 -11 32 5 19 21 -6 7 -15 12
-19 9 -4 -3 -7 7 -7 21 0 14 6 28 13 31 24 9 15 22 -18 26 -30 4 -31 5 -11 12
13 4 20 11 17 16 -3 5 4 22 15 38 25 34 26 41 7 41 -7 0 -19 -14 -26 -31 -7
-17 -18 -28 -25 -25 -7 2 -18 -1 -24 -7 -9 -9 -11 -8 -6 6 4 9 14 17 22 17 12
0 14 7 9 31 -3 17 -6 40 -6 50 0 9 -7 25 -16 34 -12 12 -14 19 -6 27 8 8 8 17
0 31 -5 11 -6 22 -2 26 14 9 16 39 5 59 -7 13 -7 22 1 30 7 7 8 15 4 19 -10
10 -26 -17 -26 -44 0 -13 -5 -23 -11 -23 -5 0 -7 5 -4 11 4 6 -1 17 -11 24
-17 13 -17 16 -4 25 13 8 13 10 -2 10 -10 0 -18 -7 -18 -15 0 -9 -7 -18 -15
-21 -10 -4 -12 -15 -8 -35 4 -24 3 -28 -10 -23 -8 3 -18 1 -22 -5 -3 -6 0 -14
8 -17 11 -4 14 -19 12 -52 -2 -41 -5 -47 -24 -47 -12 0 -26 -7 -31 -15 -8 -12
-10 -12 -10 -1 0 8 8 20 18 27 16 12 16 14 -6 29 -12 9 -20 21 -17 26 4 5 -1
12 -9 15 -9 3 -16 12 -16 19 0 8 -8 16 -17 18 -12 3 -8 5 9 6 21 1 25 5 21 21
-6 24 -54 28 -73 5 -18 -22 -45 -18 -58 8 -9 20 -11 20 -11 3 -1 -27 -14 -11
-16 19 -1 29 12 32 31 7 12 -15 12 -15 7 7 -3 13 -14 26 -24 28 -14 4 -17 11
-13 29 4 15 2 24 -6 24 -6 0 -8 -5 -4 -11 5 -8 1 -8 -14 0 -30 16 -38 -4 -13
-31 23 -24 27 -38 11 -38 -5 0 -10 -9 -10 -19 0 -14 -8 -21 -27 -23 -22 -2
-27 -9 -30 -35 -3 -27 -1 -33 14 -32 10 0 13 3 6 6 -17 6 -17 23 0 23 7 0 18
-9 25 -20 7 -11 9 -20 5 -19 -24 4 -43 -2 -37 -12 11 -18 14 -189 3 -189 -5 0
-9 8 -9 18 -1 21 -25 54 -33 45 -4 -3 -7 8 -7 25 0 32 -14 43 -23 20 -4 -10
-6 -10 -6 0 -1 6 -8 12 -16 12 -19 0 -19 -7 0 -27 17 -17 16 -34 -3 -41 -7 -2
-12 3 -12 12 0 8 -5 18 -10 21 -7 4 -9 -2 -4 -19 7 -30 -14 -36 -39 -11 -13
13 -16 13 -21 0 -3 -8 -1 -17 4 -20 6 -4 10 -15 10 -25 0 -11 10 -29 22 -40
19 -17 20 -22 8 -30 -15 -9 -7 -25 12 -25 6 0 13 -6 16 -12 2 -7 -1 -13 -8
-13 -8 0 -8 -5 0 -21 7 -11 9 -23 6 -26 -3 -3 -9 3 -13 13 -9 24 -32 48 -60
63 -32 16 -36 -1 -6 -35 39 -45 48 -76 26 -92 -10 -7 -28 -10 -40 -7 -25 6
-30 -4 -11 -23 15 -15 2 -28 -15 -14 -8 7 -18 7 -27 2 -21 -14 -30 -12 -30 5
0 8 -5 15 -11 15 -5 0 -9 -10 -7 -22 2 -12 -3 -23 -11 -26 -10 -3 -12 0 -8 12
5 11 3 15 -5 10 -8 -5 -9 -2 -5 9 4 10 0 20 -10 25 -10 6 -12 12 -5 16 8 5 8
15 2 32 -13 32 -12 34 1 34 7 0 18 -8 26 -18 12 -15 13 -12 11 28 -2 30 -7 44
-15 43 -7 -2 -13 2 -13 7 0 6 4 10 9 10 5 0 11 7 15 15 7 20 -18 19 -38 -1
-15 -14 -16 -14 -16 1 0 9 -4 13 -10 10 -5 -3 -10 1 -10 9 0 8 5 18 10 21 6 3
10 13 10 22 0 9 -3 13 -6 10 -9 -8 -44 37 -44 56 0 8 -6 17 -12 19 -21 8 -38
-3 -38 -23 0 -11 -4 -18 -9 -15 -10 7 -9 56 2 74 5 8 3 12 -7 12 -9 0 -16 -7
-16 -16 0 -10 -6 -14 -15 -10 -10 4 -20 -6 -30 -31 -17 -41 -31 -40 -15 2 7
19 7 31 -1 41 -8 10 -7 26 4 64 16 55 13 90 -9 90 -8 0 -14 5 -14 11 0 5 -4 7
-10 4 -5 -3 -10 -2 -10 3 0 5 -11 8 -24 7 -14 -2 -27 3 -30 12 -4 9 -11 11
-18 6 -17 -10 -32 -11 -38 -1 -3 4 -18 1 -33 -7 -25 -13 -30 -12 -47 5 -17 17
-22 18 -47 5 -17 -9 -29 -11 -31 -5 -7 19 -40 10 -47 -12 -4 -13 -7 -26 -6
-30 0 -3 -6 -12 -15 -18 -12 -10 -18 -9 -34 5 -11 10 -23 15 -27 11 -4 -4 -1
-11 6 -15 7 -5 9 -11 4 -14 -12 -8 -28 4 -36 27 -4 10 -10 16 -14 13 -11 -11
-43 13 -43 33 0 23 -18 27 -26 5 -4 -8 -12 -15 -20 -15 -8 0 -14 -6 -14 -14 0
-8 -4 -16 -10 -18 -6 -2 -4 -14 4 -30 12 -22 12 -27 1 -32 -9 -3 -12 0 -8 10
3 8 -1 14 -8 14 -8 0 -24 3 -36 6 -18 5 -23 2 -23 -14 0 -24 -16 -37 -25 -22
-8 14 -25 13 -25 -2 0 -6 -15 -24 -32 -39 -25 -21 -29 -28 -15 -29 18 0 25
-20 7 -20 -5 0 -10 -15 -10 -33 0 -18 -6 -39 -12 -46 -7 -7 -8 -12 -3 -11 22
5 35 -1 35 -15 0 -18 -40 -20 -40 -2 -1 6 -10 1 -20 -12 -11 -13 -20 -20 -20
-17 0 4 -6 1 -14 -6 -10 -9 -11 -17 -3 -26 8 -10 5 -14 -12 -19 -13 -3 -20
-11 -17 -19 3 -8 1 -14 -4 -14 -6 0 -10 5 -10 10 0 6 -5 10 -11 10 -5 0 -7 -4
-4 -10 3 -5 2 -18 -3 -27 -5 -10 -6 -27 -3 -37 11 -29 -10 -66 -36 -66 -28 0
-59 -33 -74 -77 -6 -18 -16 -34 -22 -34 -7 -1 -16 -2 -22 -4 -5 -1 -18 -3 -27
-3 -11 -1 -18 -10 -18 -22 0 -10 -6 -23 -14 -27 -19 -11 -31 -53 -15 -53 10 0
10 -3 1 -12 -14 -14 -16 -32 -3 -24 19 12 20 -26 1 -59 -11 -20 -20 -47 -20
-60 0 -15 -6 -25 -15 -25 -8 0 -17 -11 -21 -25 -3 -14 -10 -25 -15 -25 -5 0
-9 -9 -9 -20 0 -11 -4 -20 -10 -20 -5 0 -10 -7 -10 -15 0 -7 -6 -18 -12 -22
-19 -12 -48 -81 -42 -98 4 -10 0 -15 -10 -15 -24 0 -25 -43 -1 -70 17 -20 26
-72 11 -67 -6 2 -13 17 -16 33 -4 20 -15 33 -35 43 -17 8 -31 18 -33 23 -8 19
-60 7 -78 -18 -10 -14 -38 -46 -61 -72 -55 -58 -58 -94 -10 -113 17 -6 44 -12
60 -13 22 -1 27 3 27 23 0 20 3 22 27 16 15 -3 30 -10 33 -14 9 -12 50 -7 50
6 0 7 -5 12 -12 10 -7 -1 -13 8 -14 21 -1 12 -3 23 -4 25 -1 1 -3 14 -4 29 -1
15 -5 30 -9 34 -14 15 -6 23 21 21 22 -2 28 -8 32 -32 3 -17 0 -39 -7 -51 -11
-18 -11 -26 2 -50 14 -27 15 -27 15 -6 0 14 4 21 11 17 6 -4 13 2 16 13 5 21
46 38 63 27 6 -4 10 -16 11 -28 1 -24 4 -18 13 24 l6 26 44 -14 c25 -8 47 -22
49 -32 3 -9 5 -2 6 15 0 16 -4 35 -11 42 -9 9 -8 12 4 12 9 0 19 -7 22 -16 3
-9 11 -12 18 -8 8 5 9 2 5 -9 -3 -10 -2 -17 4 -17 6 0 9 -25 7 -63 -3 -56 -5
-62 -26 -65 -19 -3 -23 -9 -20 -30 3 -23 10 -29 53 -40 28 -7 67 -11 88 -8 20
2 37 1 37 -3 0 -7 102 -31 133 -31 14 0 16 16 13 146 -3 114 -1 144 9 140 33
-12 103 -17 109 -7 4 6 14 11 22 11 11 0 13 -6 9 -21 -5 -15 -4 -19 4 -15 6 4
11 14 11 22 0 7 9 19 20 26 21 13 28 48 9 48 -6 0 -9 10 -7 22 4 27 48 39 48
14 0 -21 24 -20 55 0 29 19 31 11 10 -40 -15 -36 -13 -56 6 -56 6 0 7 5 4 10
-10 16 21 11 36 -6 10 -13 10 -17 -2 -25 -10 -6 -10 -9 -1 -9 8 0 12 -18 12
-57 0 -79 -11 -138 -21 -121 -7 10 -12 11 -28 1 -12 -7 -22 -9 -26 -3 -3 5
-22 8 -43 6 -59 -6 -64 0 -57 58 4 28 12 62 17 75 5 15 5 28 -1 34 -10 10 -15
-1 -31 -88 -6 -33 -14 -68 -16 -77 -6 -20 -44 -24 -75 -7 -11 5 -29 7 -39 4
-16 -5 -20 -15 -20 -50 l0 -43 73 -12 c82 -13 101 -18 72 -19 -11 -1 -60 6
-108 15 -133 23 -126 12 9 -16 66 -14 110 -26 99 -28 -11 -1 -63 6 -115 17
-210 44 -437 89 -472 95 -41 7 -50 21 -18 29 11 3 20 11 20 17 0 7 -6 10 -14
7 -7 -3 -19 0 -25 6 -9 9 -14 9 -20 -2 -6 -9 -11 -10 -15 -2 -10 16 -26 14
-26 -4 0 -8 8 -15 18 -15 11 0 18 -7 18 -20 0 -23 -13 -25 -40 -5 -11 8 -29
12 -42 9 -12 -3 -35 1 -50 9 -39 19 -84 29 -84 19 0 -10 124 -52 152 -52 8 0
21 -6 27 -14 10 -11 8 -15 -6 -19 -11 -3 -6 -5 12 -6 17 -1 59 -10 95 -20 46
-13 65 -23 64 -34 -1 -12 15 -21 55 -32 31 -9 64 -18 74 -21 20 -6 23 -20 5
-27 -15 -5 152 -90 254 -131 36 -14 81 -26 98 -26 49 0 120 -21 120 -35 0 -9
-8 -11 -22 -8 -27 7 -23 1 11 -17 15 -8 21 -8 17 -1 -8 13 17 14 54 4 24 -7
23 -8 -10 -14 -33 -5 -28 -9 130 -86 91 -45 300 -143 465 -218 165 -75 377
-172 470 -215 167 -76 202 -92 475 -211 74 -33 160 -73 191 -89 31 -17 133
-63 225 -104 93 -41 230 -102 304 -136 74 -34 177 -80 228 -103 50 -23 92 -45
92 -49 0 -5 9 -8 20 -8 10 0 72 -25 137 -56 65 -31 183 -85 263 -119 80 -35
187 -84 239 -109 l95 -46 1383 0 1383 0 0 950 -1 950 -27 15 -27 15 28 -6 27
-6 0 187 c0 112 -4 184 -9 180 -5 -3 -12 -1 -16 5 -3 5 0 10 8 10 11 0 15 24
16 120 1 73 -2 120 -8 120 -6 0 -22 -5 -36 -12 -17 -8 -29 -8 -36 -1 -6 6 -26
7 -51 3 -23 -5 -47 -6 -54 -3 -6 2 -15 0 -19 -6 -10 -16 -25 -13 -25 5 0 14
-7 15 -47 9 -27 -5 -57 -7 -68 -7 -10 1 -25 -4 -32 -10 -14 -11 -99 -3 -107
11 -15 24 -150 5 -168 -24 -5 -8 -27 -10 -63 -7 -46 4 -59 1 -71 -14 -13 -16
-15 -17 -10 -2 3 10 0 21 -7 25 -22 14 -89 13 -134 -2 -24 -8 -74 -15 -111
-15 -41 0 -100 -9 -148 -23 -76 -22 -121 -25 -191 -14 -18 3 -39 0 -48 -7 -11
-7 -65 -11 -166 -10 -118 1 -151 -2 -157 -13 -8 -13 -43 -9 -42 6 2 20 38 76
48 73 15 -3 15 4 2 29 -7 13 -7 19 0 19 20 0 10 39 -16 59 -22 17 -24 22 -10
27 9 3 16 12 16 20 0 16 16 19 25 4 3 -5 1 -10 -4 -10 -6 0 -11 -7 -11 -15 0
-8 5 -15 11 -15 5 0 7 -5 3 -12 -5 -7 -2 -9 8 -6 19 8 39 -24 27 -43 -6 -10
-9 -10 -9 -1 0 6 -4 12 -10 12 -20 0 -9 -31 14 -40 22 -8 24 -13 19 -47 -6
-37 -6 -38 14 -20 11 9 25 17 31 17 7 0 12 5 12 10 0 6 12 15 28 21 15 7 22
13 15 16 -21 8 -15 23 8 23 18 0 19 2 9 15 -8 10 -17 12 -24 6 -20 -17 -35 19
-21 52 l11 28 26 -21 c14 -11 31 -20 37 -20 19 0 12 18 -14 38 -14 11 -25 28
-25 39 0 22 -18 43 -38 43 -16 0 -62 40 -62 54 0 5 -9 16 -20 26 -25 21 -12
34 41 44 31 5 37 3 42 -14 3 -11 10 -20 15 -20 6 0 8 9 5 20 -3 11 -9 20 -14
20 -5 0 -9 14 -9 30 0 26 -4 30 -26 30 -21 0 -25 -4 -21 -20 3 -11 1 -20 -4
-20 -10 0 -12 30 -4 52 4 10 16 13 35 10 24 -3 30 -1 30 14 0 18 1 18 18 0 12
-13 14 -20 5 -23 -20 -7 -15 -23 7 -23 11 0 30 -10 42 -22 13 -13 23 -17 26
-10 2 8 11 8 28 1 31 -11 34 -11 34 1 0 5 -16 20 -35 32 -35 23 -48 45 -21 35
8 -3 16 -1 19 6 2 8 18 3 45 -15 39 -27 58 -25 47 4 -6 15 1 25 33 53 20 16
25 17 33 5 8 -13 11 -12 23 3 16 20 43 14 66 -15 13 -16 18 -17 33 -5 17 12
17 14 -3 40 -18 22 -20 31 -10 42 16 20 5 45 -20 45 -11 0 -20 4 -20 8 0 4
-15 13 -32 20 l-33 13 38 16 c36 15 39 14 52 -3 14 -19 14 -19 15 0 0 18 1 18
20 1 11 -10 20 -13 20 -8 0 6 11 14 25 17 38 10 30 25 -20 38 -31 8 -44 17
-42 28 1 8 -3 14 -10 13 -8 -2 -10 11 -7 42 4 36 2 45 -10 45 -9 0 -16 5 -16
11 0 5 -4 7 -10 4 -5 -3 -10 1 -10 10 0 11 -6 14 -24 9 -28 -7 -70 12 -60 27
3 6 0 10 -7 8 -33 -4 -48 1 -43 16 4 8 12 15 19 15 26 0 40 30 28 61 -8 20 -8
29 -1 29 6 0 5 7 -3 16 -11 14 -10 18 6 31 20 14 20 14 -5 33 -14 10 -21 22
-17 27 5 4 12 1 18 -7 8 -13 12 -12 27 5 9 11 25 19 35 17 12 -2 17 3 17 17 0
13 -7 21 -17 22 -10 0 -27 3 -38 5 -11 2 -37 7 -57 10 -39 6 -48 17 -26 30 6
4 14 2 16 -4 2 -7 11 -12 19 -12 11 0 14 6 9 23 -3 12 -6 25 -6 30 0 4 -10 7
-21 7 -18 0 -20 2 -9 15 9 11 22 14 40 10 18 -4 31 -1 41 11 12 15 12 16 -7
10 -16 -5 -23 -2 -27 14 -3 11 -12 20 -21 20 -9 0 -16 7 -16 16 0 11 6 14 23
10 l22 -6 -23 12 c-16 8 -22 19 -20 36 2 20 -4 29 -29 43 -18 10 -40 16 -48
13 -11 -4 -15 0 -15 16 0 11 4 19 9 15 6 -3 16 1 23 8 7 8 20 12 30 9 12 -3
18 1 18 13 0 9 -9 19 -19 22 -12 3 -17 11 -14 19 3 8 -3 17 -13 21 -11 3 -22
11 -26 17 -5 7 -8 6 -8 -3 0 -7 -6 -11 -14 -8 -9 4 -17 -2 -21 -14 -6 -19 -35
-27 -35 -9 0 6 5 10 10 10 15 0 12 30 -2 30 -8 1 -6 6 5 14 13 10 16 21 12 39
-5 20 -12 24 -36 22 -29 -2 -54 -15 -30 -15 7 0 10 -4 6 -9 -3 -6 -22 -9 -43
-8 -36 1 -38 2 -34 32 3 16 9 35 14 42 5 7 7 16 5 20 -3 5 6 13 19 20 28 13
31 7 7 -19 -14 -16 -14 -18 0 -18 8 0 17 -6 20 -12 5 -15 46 29 47 50 0 15
-39 32 -58 25 -7 -3 -19 0 -27 7 -8 7 -22 10 -30 6 -17 -6 -19 7 -5 34 13 24
-16 36 -39 17 -9 -7 -29 -19 -44 -25 -22 -9 -27 -17 -22 -32 5 -16 3 -19 -12
-14 -15 6 -15 5 2 -9 14 -10 24 -12 32 -5 22 18 53 -1 53 -33 0 -16 -5 -29
-11 -29 -7 0 -9 10 -5 28 4 17 3 22 -2 14 -5 -8 -12 -13 -16 -13 -18 3 -20 0
-6 -10 11 -7 12 -12 3 -15 -7 -3 -9 -12 -6 -20 3 -8 -1 -14 -11 -14 -9 0 -16
3 -17 8 -5 59 -19 98 -19 54 0 -17 -6 -22 -26 -22 -14 0 -34 -5 -45 -11 -19
-9 -19 -9 -7 13 7 13 17 26 22 29 5 4 5 12 1 19 -6 10 -10 9 -17 -4 -12 -21
-32 -21 -24 0 12 31 -5 61 -43 77 -42 19 -91 22 -91 7 0 -5 -7 -10 -15 -10 -8
0 -15 -4 -15 -10 0 -5 -5 -10 -12 -10 -6 0 -4 8 6 19 20 22 13 46 -26 83 -34
32 -35 42 -4 36 21 -4 23 -3 13 13 -7 11 -19 17 -28 14 -9 -3 -19 1 -22 10 -4
8 -13 12 -22 9 -8 -3 -15 -1 -15 5 0 6 5 11 11 11 6 0 8 7 5 16 -5 14 -4 15 8
5 11 -9 15 -7 18 7 3 11 1 27 -4 36 -7 12 -5 16 7 16 19 0 19 14 -1 34 -8 9
-12 21 -8 27 4 8 0 8 -15 0 -19 -11 -25 -8 -23 10 1 3 -15 11 -34 18 -19 7
-32 17 -28 22 3 5 0 16 -6 24 -10 12 -9 15 4 15 10 0 15 4 12 8 -3 5 -6 25 -8
45 -1 27 -7 37 -19 37 -25 0 -33 -30 -12 -45 10 -8 14 -17 9 -22 -4 -4 -13 0
-20 11 -6 10 -21 31 -33 45 -14 18 -19 35 -16 53 3 14 0 29 -6 32 -5 4 -8 13
-4 21 6 17 3 18 -14 7z m-23 -2064 c0 -19 1 -19 25 -4 34 22 45 20 45 -9 0
-14 5 -25 10 -25 6 0 10 8 10 18 0 10 7 19 15 19 8 0 15 -6 15 -14 0 -7 7 -13
15 -13 14 0 20 12 16 33 -1 5 3 6 9 2 6 -3 8 -11 4 -16 -3 -6 -7 -21 -9 -35
-2 -18 2 -24 11 -20 8 3 14 -1 14 -9 0 -8 -7 -15 -15 -15 -11 0 -13 -8 -8 -30
3 -18 1 -30 -5 -30 -5 0 -8 10 -4 22 3 12 1 19 -4 15 -6 -3 -16 -2 -24 4 -13
7 -13 9 -1 9 23 0 -16 37 -45 43 -30 5 -33 -18 -3 -26 16 -4 20 -11 16 -26 -3
-14 0 -21 10 -21 8 0 17 -9 20 -20 3 -11 9 -17 14 -14 5 3 9 -4 9 -16 0 -17
-3 -19 -18 -11 -10 5 -24 17 -31 25 -7 8 -19 12 -27 9 -12 -4 -14 0 -9 20 10
38 -5 55 -21 26 -9 -18 -9 -27 -1 -37 13 -17 -11 -36 -28 -22 -6 5 -17 5 -25
0 -8 -6 -22 -9 -30 -9 -10 0 -8 3 5 9 18 8 17 9 -6 9 -28 1 -43 28 -29 51 5 7
1 28 -8 46 -17 34 -35 43 -47 24 -9 -15 -45 7 -45 29 0 15 8 18 58 17 48 -1
57 -4 54 -18 -2 -10 2 -18 8 -18 5 0 10 9 10 20 0 11 5 20 10 20 6 0 10 7 10
16 0 14 3 14 15 4 8 -7 15 -21 15 -32z m-3212 -76 c8 8 14 4 23 -15 7 -15 16
-27 20 -27 21 0 39 14 39 30 0 12 7 18 23 17 12 0 29 3 39 7 12 6 18 0 23 -25
5 -22 3 -34 -6 -40 -11 -6 -11 -11 -2 -20 9 -9 19 -8 42 2 l30 14 -21 22 c-17
19 -18 23 -6 23 9 0 25 -17 35 -37 14 -27 29 -40 49 -44 16 -4 25 -7 19 -8 -5
-1 -3 -5 5 -10 8 -6 19 -7 25 -3 18 11 45 12 45 2 0 -6 -13 -13 -30 -16 -16
-4 -30 -10 -30 -15 0 -4 -8 -10 -17 -12 -14 -4 -13 -5 4 -6 16 -1 21 -5 16
-17 -5 -14 -3 -15 14 -5 17 9 22 7 26 -10 4 -16 2 -19 -14 -14 -18 6 -19 5 -8
-13 7 -12 17 -18 21 -16 4 3 8 -6 8 -20 0 -14 5 -28 10 -31 6 -4 8 -15 5 -26
-5 -15 -1 -19 17 -19 13 0 33 -6 43 -14 11 -8 25 -12 32 -9 22 9 14 -13 -9
-25 -21 -11 -20 -11 10 -6 19 3 39 1 47 -6 8 -6 19 -9 25 -5 7 4 7 -2 0 -20
-13 -33 -13 -31 6 -50 14 -13 19 -14 26 -3 7 9 8 6 5 -9 -3 -15 0 -23 8 -23 7
0 16 -7 19 -16 9 -23 7 -36 -3 -29 -5 3 -13 1 -16 -5 -7 -12 13 -42 24 -36 4
3 13 1 21 -4 11 -7 16 -34 18 -97 l4 -88 -40 0 c-32 0 -38 2 -30 12 8 10 -2
13 -51 13 -48 0 -61 -3 -61 -15 0 -8 -5 -15 -11 -15 -6 0 -9 7 -5 15 6 17 -9
21 -19 5 -4 -6 -12 -7 -18 -3 -16 10 -131 3 -135 -8 -2 -5 -12 -9 -23 -9 -10
0 -19 -4 -19 -9 0 -5 87 -8 205 -6 l205 3 0 -22 c0 -19 -4 -22 -29 -18 -20 3
-30 -1 -35 -13 -5 -15 -2 -17 24 -12 22 5 30 3 30 -7 0 -18 -31 -29 -44 -16
-5 5 -18 10 -28 10 -10 0 -17 5 -15 12 1 6 -6 14 -16 16 -14 3 -17 -1 -12 -20
5 -21 3 -23 -32 -23 -21 0 -46 6 -55 14 -26 22 -48 22 -57 -2 -8 -20 -8 -20
-13 5 -4 19 -1 25 9 21 7 -3 13 0 13 6 0 7 -24 11 -70 9 -38 -1 -70 -5 -70
-10 0 -8 10 -10 63 -11 29 -1 34 -9 15 -24 -16 -13 -69 -23 -63 -12 5 8 -47
49 -62 49 -4 0 0 -5 10 -11 28 -16 20 -29 -18 -29 -32 0 -34 2 -23 20 15 24 3
38 -21 23 -13 -8 -22 -8 -29 -1 -13 13 -42 4 -42 -13 0 -6 9 -13 20 -16 11 -3
20 -9 20 -14 0 -12 -17 -11 -25 2 -4 6 -14 8 -23 4 -8 -3 -18 -1 -21 4 -4 6
-12 6 -21 1 -13 -8 -12 -10 3 -10 9 0 17 -4 17 -10 0 -14 -17 -12 -43 4 -12 8
-43 17 -70 21 -42 6 -46 8 -32 21 21 21 19 25 -9 14 -13 -5 -44 -6 -68 -4 -47
6 -45 6 -106 1 -23 -2 -45 -1 -47 3 -7 11 -47 0 -64 -17 -10 -10 -12 -30 -6
-78 l6 -64 45 -7 c25 -3 43 -9 40 -11 -2 -3 -40 1 -83 8 -43 8 -69 15 -57 17
17 2 20 10 20 45 -1 23 2 69 6 102 3 33 3 65 -1 72 -4 7 -4 41 -1 75 4 35 3
79 -1 98 -10 46 25 134 44 110 7 -9 24 -17 39 -18 21 -1 25 2 21 18 -3 11 -10
20 -16 20 -6 0 -2 7 9 15 10 8 24 14 29 14 6 0 1 -6 -9 -14 -20 -15 -20 -15 0
-15 11 0 25 5 31 11 15 15 46 -32 37 -55 -5 -12 -2 -15 10 -10 18 7 22 54 4
54 -9 0 -9 3 0 12 10 10 15 10 23 -2 8 -12 10 -9 6 13 -3 18 0 26 7 24 6 -2
11 -17 11 -33 0 -20 4 -28 14 -26 12 3 12 0 1 -12 -10 -13 -10 -16 5 -16 14 0
16 8 13 45 -3 40 -1 45 17 45 12 0 27 -6 34 -12 10 -10 15 -10 18 -1 3 9 10 9
28 1 26 -12 25 -31 -1 -21 -8 3 -14 2 -12 -3 1 -5 -3 -18 -9 -29 -12 -22 -12
-65 0 -65 4 0 11 0 17 0 5 0 7 7 4 15 -5 12 1 14 25 11 17 -2 31 1 31 5 0 5 8
9 18 10 13 0 12 3 -5 11 -32 15 -29 28 6 28 16 0 31 6 35 15 3 8 1 15 -3 15
-5 0 -11 -6 -14 -12 -2 -7 -4 0 -4 15 0 20 3 25 10 18 19 -19 24 -12 22 34 -2
48 19 83 31 51 3 -9 14 -16 23 -17 10 0 11 -2 3 -6 -17 -7 -5 -23 18 -23 20 0
58 46 47 56 -9 10 -27 -6 -27 -24 0 -13 -6 -10 -24 11 -13 15 -33 27 -45 27
-15 0 -21 6 -21 21 0 12 4 17 11 13 7 -4 10 1 7 11 -9 50 -45 -3 -40 -59 2
-19 2 -19 -18 -1 -11 10 -23 15 -27 12 -7 -7 -33 11 -33 23 0 4 14 6 30 5 27
-2 29 1 24 19 -4 12 -14 26 -23 33 -9 6 -13 15 -9 19 5 4 17 -1 28 -11 17 -16
25 -17 40 -7 11 6 26 9 35 6 10 -4 15 0 15 10 0 9 9 21 20 28 28 18 25 31 -5
24 -18 -5 -25 -2 -25 8 0 8 4 17 9 20 4 3 6 16 4 29 -5 24 -9 25 -103 29 -8 1
-18 6 -22 12 -12 19 -19 -1 -9 -27 8 -19 6 -28 -4 -37 -8 -7 -12 -16 -9 -21 9
-14 -5 -29 -22 -22 -11 4 -14 13 -9 30 4 18 2 23 -7 18 -7 -4 -4 1 6 9 18 14
18 17 4 33 -17 19 -13 47 4 36 11 -6 9 6 -7 52 -6 19 -5 18 13 -2 14 -16 22
-19 30 -11z m-134 -87 c1 -24 6 -31 25 -33 17 -3 20 -6 11 -12 -7 -5 -24 -4
-36 0 -14 6 -26 5 -29 0 -4 -6 2 -11 12 -11 17 -1 17 -2 1 -6 -22 -6 -23 -12
-1 -28 14 -10 15 -16 5 -28 -10 -11 -8 -19 6 -38 10 -13 22 -32 25 -42 4 -10
11 -16 16 -13 17 11 29 -19 22 -54 -5 -27 -12 -36 -31 -38 -18 -2 -21 0 -12 6
11 7 10 11 -3 16 -10 4 -15 12 -11 21 3 8 9 22 13 32 4 10 3 14 -5 9 -6 -3
-15 1 -20 10 -6 11 -17 15 -31 11 -18 -4 -21 -2 -16 13 8 25 -14 60 -33 52
-12 -4 -14 0 -8 24 4 16 15 37 24 46 38 38 44 48 30 49 -7 1 -17 0 -23 -1 -5
-1 -23 -3 -38 -5 -15 -1 -37 -12 -48 -24 -23 -25 -57 -28 -65 -6 -6 14 -8 13
-20 -2 -12 -16 -13 -15 -11 11 2 31 20 44 40 29 6 -5 23 -8 37 -6 14 2 33 5
43 6 10 1 15 7 13 14 -8 19 4 43 21 43 10 0 12 -6 8 -19 -5 -18 -3 -19 30 -9
28 9 35 17 36 37 l0 26 11 -25 c6 -14 11 -38 12 -55z m2517 -21 c19 -20 26
-32 17 -29 -10 4 -18 4 -18 1 0 -4 9 -10 20 -14 23 -8 14 -26 -17 -36 -18 -6
-20 -4 -16 14 3 11 0 20 -6 20 -6 0 -11 -9 -11 -20 0 -11 -4 -20 -10 -20 -10
0 -14 14 -11 35 1 6 -6 0 -16 -12 -15 -19 -25 -21 -63 -17 -25 3 -50 6 -57 7
-10 0 -10 9 -3 62 1 6 5 1 10 -10 5 -11 9 -14 9 -6 1 11 4 11 16 1 10 -9 15
-9 15 -1 0 6 12 12 28 12 16 1 20 3 10 6 -10 2 -18 9 -18 15 0 5 7 7 15 4 38
-15 50 -18 36 -8 -20 14 -7 42 17 35 11 -2 35 -20 53 -39z m654 -116 c0 -55
19 -82 46 -67 13 6 19 6 19 -1 0 -5 -8 -10 -17 -10 -14 0 -13 -3 5 -20 33 -31
28 -62 -8 -53 -15 4 -28 29 -31 60 -3 31 -95 45 -106 17 -7 -20 -23 -17 -23 4
0 14 -2 15 -10 2 -5 -8 -10 -11 -10 -6 0 5 -6 3 -14 -3 -11 -9 -15 -9 -19 1
-2 7 -5 -6 -5 -30 0 -23 3 -40 8 -37 4 3 10 0 12 -6 3 -9 10 -8 25 2 19 11 25
11 41 -4 25 -22 38 -21 45 3 3 13 -2 25 -16 35 -11 8 -18 18 -14 21 4 4 13 1
21 -5 8 -7 19 -10 24 -7 10 6 22 -51 15 -70 -3 -7 -20 -10 -47 -7 -26 3 -46 1
-50 -6 -4 -6 -16 -11 -26 -11 -25 0 -43 -33 -28 -48 15 -15 12 -83 -6 -100
-19 -19 -55 -6 -60 21 -3 12 -8 59 -11 104 -7 85 3 109 28 73 7 -11 17 -17 20
-13 14 13 6 49 -13 61 -12 7 -20 8 -20 2 0 -5 -4 -10 -10 -10 -5 0 -10 7 -10
15 0 8 3 14 8 14 38 -6 57 22 32 47 -12 12 -3 44 11 44 9 0 13 -15 10 -34 -1
-5 10 -6 24 -4 14 3 28 2 31 -3 6 -10 36 0 46 15 5 7 8 4 8 -6 0 -24 12 -23
33 3 15 17 16 23 6 36 -10 12 -10 16 2 24 25 15 34 4 34 -43z m-3370 12 c-3
-5 -2 -15 1 -24 5 -13 9 -12 24 7 18 21 20 21 36 5 11 -11 14 -23 9 -35 -4
-10 -7 -28 -6 -41 2 -16 -2 -22 -12 -20 -8 2 -25 -8 -36 -21 -19 -22 -20 -26
-6 -41 8 -9 12 -20 8 -23 -11 -12 -23 -8 -23 8 0 8 -6 16 -12 17 -7 0 -17 2
-23 2 -5 1 -18 6 -28 12 -16 9 -16 13 -5 35 15 28 38 27 38 -1 0 -10 4 -21 8
-24 9 -5 1 55 -13 108 -6 21 -5 27 4 22 6 -4 11 -3 11 3 0 5 -6 12 -12 14 -10
4 -9 8 2 16 16 11 44 -5 35 -19z m-506 -516 c1 -79 0 -82 -23 -86 -14 -3 -30
0 -35 5 -8 8 -11 7 -11 -1 0 -7 -4 -12 -10 -12 -5 0 -10 10 -10 23 0 12 -4 17
-8 11 -4 -6 -15 -13 -25 -17 -10 -4 -24 -21 -32 -39 l-14 -33 -1 51 c0 79 10
114 36 126 27 13 32 28 9 28 -8 0 -15 5 -15 10 0 6 3 9 8 9 26 -4 42 5 56 35
10 22 25 36 39 38 27 4 36 -29 36 -148z m4690 65 c17 -16 42 -22 109 -28 81
-8 75 -8 -88 -12 -96 -1 -191 -4 -210 -5 -30 -2 -703 -5 -828 -4 -26 0 -41 4
-37 10 3 6 15 10 27 10 14 0 18 5 14 15 -7 19 20 20 31 1 9 -15 170 -29 179
-15 3 5 13 5 25 -1 11 -6 23 -9 28 -6 4 3 124 6 265 6 256 1 291 4 280 21 -3
5 0 9 5 9 6 0 11 -4 11 -10 0 -6 33 -10 80 -10 78 0 80 1 70 20 -15 28 9 27
39 -1z m-734 -79 c6 -1 12 -2 15 -1 6 2 484 4 591 2 61 -1 78 -4 83 -17 5 -13
1 -15 -18 -12 -15 3 -23 1 -20 -6 7 -18 -172 -17 -187 0 -10 12 -15 12 -31 -2
-23 -22 -115 -27 -122 -7 -3 7 -14 13 -25 13 -15 0 -19 -5 -14 -16 5 -14 2
-16 -23 -10 -16 4 -36 6 -44 5 -8 0 -61 -1 -117 0 -57 1 -104 -3 -108 -8 -6
-11 -55 6 -55 18 0 11 -50 5 -62 -7 -7 -7 -32 -9 -70 -5 -35 3 -58 2 -58 -4 0
-5 -14 -8 -31 -5 -26 4 -30 8 -27 31 2 18 8 25 21 23 9 -2 17 1 17 5 0 7 257
10 285 3z m-3319 -244 c5 -29 11 -35 37 -39 180 -31 341 -59 382 -67 116 -22
246 -42 330 -51 50 -6 91 -14 93 -19 2 -4 12 -6 23 -3 10 3 31 1 47 -5 15 -6
63 -14 107 -17 70 -4 281 -38 400 -65 22 -4 75 -15 118 -23 43 -8 81 -18 84
-21 10 -9 -9 -7 -135 13 -64 11 -220 36 -347 56 -443 70 -1165 196 -1200 210
-5 2 0 4 11 4 25 1 37 25 28 54 -4 12 -2 17 5 13 5 -4 13 -22 17 -40z m4444
-1041 c12 0 15 -19 17 -105 1 -58 2 -109 3 -115 1 -5 2 -24 1 -42 -1 -31 -1
-31 -38 -21 -21 5 -41 13 -45 16 -4 4 -7 48 -8 97 -3 153 -2 159 23 170 12 6
24 8 27 5 3 -3 12 -5 20 -5z m1194 -287 c3 -35 7 -111 10 -169 l5 -105 -46 -1
-45 -1 4 52 c2 33 -1 50 -8 49 -7 -1 -14 20 -17 49 -7 57 2 84 15 48 6 -17 12
-20 19 -13 13 13 2 73 -12 73 -5 0 -9 5 -9 11 0 5 4 8 9 5 5 -3 12 1 15 10 3
8 11 14 18 12 7 -2 14 0 16 5 6 19 0 25 -20 19 -14 -3 -19 -2 -14 6 4 7 18 12
31 12 22 0 24 -5 29 -62z"/>
<path d="M12790 2700 c0 -5 -7 -10 -16 -10 -8 0 -13 -4 -9 -10 3 -5 12 -7 20
-3 8 3 15 1 15 -5 0 -13 -44 -24 -63 -16 -9 3 -18 12 -21 20 -5 13 -10 13 -36
-3 -36 -21 -34 -38 3 -37 15 1 27 -3 27 -9 0 -5 7 -4 15 3 11 9 15 9 15 1 0
-7 9 -9 25 -5 18 4 25 2 25 -8 0 -8 -10 -14 -27 -13 -30 0 -43 -26 -24 -49 14
-17 64 -8 57 10 -3 9 0 11 11 7 12 -5 15 -2 10 10 -3 9 -2 17 3 17 6 0 10 -7
10 -15 0 -8 7 -15 15 -15 21 0 19 13 -5 28 -11 7 -20 17 -20 23 0 5 5 7 10 4
6 -4 17 -1 25 5 8 7 26 9 40 6 21 -5 25 -3 25 18 0 18 -7 25 -29 29 -15 3 -38
3 -49 0 -15 -3 -24 0 -28 11 -7 18 -24 22 -24 6z"/>
<path d="M6258 2613 c-37 -19 -53 -49 -36 -68 32 -36 38 -46 38 -66 0 -17 3
-19 14 -10 13 11 15 5 30 -112 1 -9 8 -23 14 -29 16 -16 15 -28 -5 -50 -15
-16 -15 -22 -4 -40 11 -17 11 -20 -1 -16 -7 3 -19 -1 -26 -8 -11 -12 -9 -14 8
-14 13 0 20 -7 20 -19 0 -11 5 -23 10 -26 10 -6 14 6 11 37 -1 9 3 19 9 23 6
3 10 -3 10 -14 0 -12 7 -21 15 -21 8 0 15 -4 15 -10 0 -5 9 -10 20 -10 13 0
19 -6 18 -17 -1 -10 0 -27 1 -38 2 -18 3 -18 12 4 l10 24 19 -21 c14 -15 19
-31 16 -54 -3 -18 -5 -41 -5 -50 -1 -10 -8 -18 -16 -18 -8 0 -15 -4 -15 -9 0
-6 9 -9 19 -8 15 1 21 12 26 54 3 29 11 51 16 48 5 -4 9 12 9 34 0 34 4 42 32
55 41 21 48 20 48 -5 0 -20 1 -21 25 -5 13 9 31 16 40 16 20 0 19 13 -4 41
-16 19 -22 22 -32 12 -20 -20 -31 -15 -19 8 13 23 6 54 -10 44 -5 -3 -10 -15
-10 -26 0 -10 -4 -19 -10 -19 -5 0 -10 4 -10 9 0 5 -8 7 -19 4 -25 -6 -35 11
-16 27 17 14 20 60 4 60 -5 0 -8 -4 -5 -9 3 -5 -1 -14 -9 -21 -8 -7 -15 -19
-15 -27 0 -10 -6 -12 -20 -8 -11 4 -20 2 -20 -4 0 -6 -6 -11 -14 -11 -11 0 -9
9 7 40 18 33 20 42 8 49 -11 7 -7 21 20 70 31 56 32 62 17 77 -10 11 -23 14
-35 10 -16 -7 -16 -9 -2 -19 20 -15 13 -37 -11 -37 -10 0 -20 -7 -24 -15 -11
-31 -31 -15 -31 25 0 43 9 53 18 19 4 -13 10 -18 17 -14 9 6 9 10 -1 16 -11 6
-11 11 -1 21 14 14 16 32 2 23 -5 -3 -10 -1 -10 4 0 19 -37 12 -43 -8 -3 -11
-16 -20 -36 -23 -33 -5 -52 9 -31 22 7 4 9 13 5 19 -4 7 1 23 10 37 12 18 13
29 6 38 -6 7 -8 16 -4 19 12 13 -42 5 -69 -10z"/>
<path d="M5783 2608 c-9 -11 -18 -56 -22 -112 -1 -4 -7 -6 -14 -3 -8 3 -20 1
-28 -4 -11 -7 -11 -9 2 -9 21 0 29 -19 18 -45 -4 -11 -8 -14 -8 -6 -2 35 -14
-3 -16 -51 -1 -29 -5 -62 -9 -73 -4 -11 2 -4 13 15 11 19 20 43 21 53 0 9 7
17 16 17 9 0 12 5 8 12 -4 7 -3 8 5 4 7 -4 9 -16 5 -28 -4 -13 0 -24 13 -34
14 -10 15 -16 5 -22 -9 -6 -4 -14 17 -30 l29 -21 5 35 c7 43 0 64 -22 65 -10
0 -11 2 -3 6 13 5 17 34 5 31 -5 -1 -18 2 -31 6 -25 8 -20 26 8 26 10 0 28 12
39 26 23 29 27 44 11 44 -5 0 -10 -9 -10 -20 0 -15 -7 -20 -24 -20 -27 0 -42
15 -26 25 8 5 8 11 1 19 -7 8 -7 24 0 50 12 44 8 64 -8 44z"/>
<path d="M5813 1798 c-24 -5 -43 -13 -43 -17 0 -9 52 -7 67 2 13 8 26 -9 28
-35 2 -19 -15 -38 -37 -42 -7 -2 -21 -7 -32 -11 -12 -5 -21 -3 -27 6 -7 11
-11 10 -23 -7 -9 -12 -26 -21 -40 -21 -24 0 -29 6 -46 67 l-8 25 -1 -27 c-1
-18 -7 -28 -16 -28 -8 0 -15 4 -15 10 0 5 -8 7 -17 3 -15 -5 -15 -3 2 11 18
16 18 17 2 12 -10 -3 -28 -6 -39 -6 -17 0 -20 -5 -16 -35 4 -31 1 -35 -19 -35
-19 0 -23 5 -23 28 1 26 1 26 15 8 15 -19 15 -19 15 2 0 16 -6 22 -21 22 -20
0 -21 -4 -15 -46 4 -34 3 -45 -7 -41 -7 2 -11 19 -11 40 2 46 -13 49 -19 5
l-4 -33 -1 33 c-1 17 -7 32 -13 32 -7 0 -9 -12 -7 -30 3 -17 1 -33 -4 -36 -4
-3 -8 9 -8 25 0 17 -4 31 -10 31 -5 0 -10 -15 -10 -32 0 -29 6 -36 41 -53 37
-17 39 -20 23 -32 -10 -8 -25 -11 -33 -8 -7 3 -23 -1 -35 -8 -31 -21 -83 -30
-91 -17 -19 31 -125 34 -125 4 0 -8 6 -14 14 -14 7 0 16 -9 19 -21 5 -18 2
-20 -19 -15 -20 5 -24 3 -24 -16 -1 -23 -1 -23 -16 -3 -15 20 -15 20 -33 -4
-16 -20 -22 -22 -47 -14 -35 12 -40 40 -6 35 34 -5 26 14 -10 25 -31 9 -33 12
-30 47 l3 38 -38 -6 c-102 -19 -113 -25 -113 -59 0 -24 3 -28 10 -17 8 12 10
9 10 -13 0 -22 -4 -28 -17 -25 -15 3 -17 12 -14 47 3 38 1 43 -14 37 -9 -3
-21 -6 -26 -6 -12 0 -12 -33 1 -46 13 -13 1 -54 -18 -54 -12 0 -14 9 -9 45 7
50 9 49 -63 34 l-50 -11 -2 -56 -2 -57 -3 53 c-4 58 -3 57 -87 41 -45 -9 -55
-15 -51 -28 2 -9 1 -36 -4 -61 l-9 -45 -1 59 c-1 55 -2 58 -23 52 -13 -3 -29
-6 -35 -6 -8 0 -14 -16 -15 -42 l-1 -43 -4 38 c-5 44 -13 45 -113 21 -36 -8
-108 -24 -160 -35 -217 -46 -277 -59 -520 -113 -140 -31 -430 -95 -645 -142
-214 -47 -581 -128 -815 -179 -234 -52 -488 -107 -565 -124 -77 -17 -223 -48
-324 -70 -101 -22 -187 -38 -192 -35 -4 2 -16 0 -26 -6 -30 -16 -816 -187
-978 -211 -33 -5 -75 -14 -92 -20 l-33 -11 0 -264 0 -264 1305 0 c736 0 1313
4 1323 9 38 20 68 30 92 33 14 2 25 9 25 17 0 15 596 304 1425 691 85 40 224
106 309 146 84 41 155 74 157 74 2 0 78 36 169 80 91 44 168 80 170 80 7 0
106 46 230 105 61 29 171 82 245 117 301 144 652 322 642 326 -6 2 -26 -3 -44
-11 -59 -26 -65 -26 -92 2 -36 38 -33 44 19 39 33 -4 45 -2 45 7 0 8 8 11 18
9 9 -3 37 2 62 10 l45 14 -48 1 c-34 1 -46 4 -41 13 5 8 2 9 -10 5 -45 -18
-93 -19 -109 -3 -9 9 -20 16 -24 15 -23 -4 -35 2 -29 16 6 17 -7 18 -71 3z"/>
<path d="M6995 1769 c-20 -7 -20 -8 1 -8 32 -1 61 -32 74 -81 10 -39 10 -45
-6 -57 -10 -7 -12 -13 -6 -13 8 0 5 -8 -7 -21 -15 -17 -26 -20 -48 -14 -15 3
-25 3 -21 -1 5 -4 -1 -13 -12 -21 -11 -8 -20 -25 -20 -38 0 -15 -7 -26 -21
-30 -24 -8 -39 8 -39 43 0 12 -4 22 -8 22 -10 0 -36 50 -34 65 1 6 -5 0 -14
-12 -17 -24 -48 -30 -59 -13 -5 8 -11 8 -20 0 -10 -8 -16 -7 -25 7 -10 16 -11
16 -7 -4 3 -13 1 -23 -4 -23 -5 0 -9 10 -9 23 0 47 -16 51 -48 11 -21 -25 -36
-35 -47 -30 -9 3 -22 3 -28 -1 -19 -11 -47 -11 -47 1 0 8 -3 8 -8 0 -4 -6 -17
-14 -29 -18 -13 -4 -23 -15 -24 -24 0 -14 -2 -13 -8 3 -8 19 -8 19 -19 0 -10
-18 -11 -18 -12 8 0 18 -5 27 -12 25 -6 -2 -20 4 -31 15 -14 14 -22 16 -30 8
-6 -6 -27 -11 -46 -10 -36 0 -36 0 -13 16 12 8 22 22 22 29 0 8 8 14 17 14 15
0 14 2 -3 15 -25 19 -52 19 -70 0 -8 -8 -21 -12 -29 -9 -8 3 -24 -1 -37 -10
-12 -9 -33 -16 -45 -16 -13 0 -23 -5 -23 -11 0 -6 -7 -9 -15 -6 -8 4 -17 2
-20 -4 -4 -5 -11 -7 -16 -4 -5 4 -9 1 -9 -6 0 -7 -10 -9 -27 -6 -20 4 -78 -21
-237 -100 -327 -164 -365 -182 -626 -310 -135 -66 -294 -144 -355 -172 -60
-28 -117 -56 -125 -61 -66 -43 -1741 -870 -1761 -870 -15 0 -32 -7 -40 -16 -7
-8 -29 -24 -48 -34 -35 -19 -2 -19 1980 -20 l2016 0 6 188 c4 103 7 237 7 297
0 154 1 155 65 155 l54 0 5 -52 c3 -29 8 -136 11 -238 3 -102 8 -222 11 -267
l6 -83 2047 1 2046 0 -125 62 c-69 34 -226 111 -350 170 -491 235 -598 287
-1228 591 -189 91 -345 166 -346 166 -2 0 -187 91 -412 201 -721 355 -729 358
-792 359 -26 0 -54 1 -62 1 -28 1 -131 -12 -193 -25 -96 -19 -131 -16 -232 25
-27 12 -64 25 -81 30 -17 5 -39 18 -49 29 -10 11 -24 20 -31 20 -8 0 -20 15
-28 34 -8 18 -19 37 -25 40 -5 4 -8 12 -5 19 2 7 -2 21 -10 32 -10 15 -27 19
-72 21 -33 0 -68 -2 -79 -7z"/>
<path d="M7300 1761 c-23 -6 -19 -10 40 -39 71 -35 95 -42 155 -44 22 0 49 -4
60 -9 16 -6 13 -8 -15 -9 -19 -1 -30 -3 -25 -6 17 -7 205 -20 205 -14 0 3 -56
33 -125 68 -120 60 -128 62 -198 61 -39 -1 -83 -4 -97 -8z"/>
<path d="M3220 1339 c-46 -10 -405 -78 -675 -129 -82 -15 -168 -31 -190 -34
-22 -4 -132 -24 -245 -46 -559 -108 -697 -134 -845 -160 -88 -16 -221 -40
-295 -54 -141 -27 -684 -126 -830 -151 -47 -9 -97 -18 -112 -21 l-28 -6 0 -94
0 -93 33 5 c17 3 66 14 107 25 106 26 383 88 460 104 121 24 494 105 665 145
94 22 213 49 265 59 132 26 180 40 180 52 0 14 -124 3 -195 -16 -155 -42 -467
-96 -395 -68 8 4 21 15 30 25 11 14 58 29 170 54 160 35 220 41 220 24 0 -5 7
-10 15 -10 8 0 15 6 15 14 0 18 34 30 171 61 138 30 145 30 158 8 6 -10 11
-12 11 -6 0 24 48 43 170 68 96 20 126 22 137 13 11 -9 16 -9 21 0 4 6 19 15
33 20 28 11 181 39 216 40 12 0 41 7 66 16 24 8 84 22 133 31 49 9 115 23 147
31 32 8 86 19 120 24 71 10 350 69 356 76 7 6 -40 3 -89 -7z m-2182 -491 c5
-25 -22 -33 -215 -68 -191 -35 -183 -34 -183 -17 1 32 25 42 172 73 171 36
221 38 226 12z m-478 -77 c0 -5 2 -16 5 -23 7 -17 -16 -23 -278 -73 -207 -41
-230 -42 -225 -18 3 18 28 26 233 72 79 18 91 19 101 6 16 -21 45 -19 51 4 7
26 113 56 113 32z"/>
</g>
</svg>
