<svg xmlns="http://www.w3.org/2000/svg" xmlns:xlink="http://www.w3.org/1999/xlink" width="500" zoomAndPan="magnify" viewBox="0 0 375 374.999991" height="500" preserveAspectRatio="xMidYMid meet" version="1.0"><defs><g><g id="id1"/><g id="id2"/></g><clipPath id="id3"><path d="M 96 159 L 106 159 L 106 170 L 96 170 Z M 96 159 " clip-rule="nonzero"/></clipPath><clipPath id="id4"><path d="M 88.414062 137.109375 L 124.515625 151.855469 L 114.875 175.464844 L 78.769531 160.714844 Z M 88.414062 137.109375 " clip-rule="nonzero"/></clipPath><clipPath id="id5"><path d="M 88.414062 137.109375 L 124.515625 151.855469 L 114.875 175.464844 L 78.769531 160.714844 Z M 88.414062 137.109375 " clip-rule="nonzero"/></clipPath><clipPath id="id6"><path d="M 80 155 L 91 155 L 91 162 L 80 162 Z M 80 155 " clip-rule="nonzero"/></clipPath><clipPath id="id7"><path d="M 88.414062 137.109375 L 124.515625 151.855469 L 114.875 175.464844 L 78.769531 160.714844 Z M 88.414062 137.109375 " clip-rule="nonzero"/></clipPath><clipPath id="id8"><path d="M 88.414062 137.109375 L 124.515625 151.855469 L 114.875 175.464844 L 78.769531 160.714844 Z M 88.414062 137.109375 " clip-rule="nonzero"/></clipPath><clipPath id="id9"><path d="M 93 144 L 98 144 L 98 155 L 93 155 Z M 93 144 " clip-rule="nonzero"/></clipPath><clipPath id="id10"><path d="M 88.414062 137.109375 L 124.515625 151.855469 L 114.875 175.464844 L 78.769531 160.714844 Z M 88.414062 137.109375 " clip-rule="nonzero"/></clipPath><clipPath id="id11"><path d="M 88.414062 137.109375 L 124.515625 151.855469 L 114.875 175.464844 L 78.769531 160.714844 Z M 88.414062 137.109375 " clip-rule="nonzero"/></clipPath><clipPath id="id12"><path d="M 104 146 L 111 146 L 111 156 L 104 156 Z M 104 146 " clip-rule="nonzero"/></clipPath><clipPath id="id13"><path d="M 88.414062 137.109375 L 124.515625 151.855469 L 114.875 175.464844 L 78.769531 160.714844 Z M 88.414062 137.109375 " clip-rule="nonzero"/></clipPath><clipPath id="id14"><path d="M 88.414062 137.109375 L 124.515625 151.855469 L 114.875 175.464844 L 78.769531 160.714844 Z M 88.414062 137.109375 " clip-rule="nonzero"/></clipPath><clipPath id="id15"><path d="M 111 155 L 123 155 L 123 163 L 111 163 Z M 111 155 " clip-rule="nonzero"/></clipPath><clipPath id="id16"><path d="M 88.414062 137.109375 L 124.515625 151.855469 L 114.875 175.464844 L 78.769531 160.714844 Z M 88.414062 137.109375 " clip-rule="nonzero"/></clipPath><clipPath id="id17"><path d="M 88.414062 137.109375 L 124.515625 151.855469 L 114.875 175.464844 L 78.769531 160.714844 Z M 88.414062 137.109375 " clip-rule="nonzero"/></clipPath></defs><g fill="rgb(21.569824%, 21.569824%, 21.569824%)" fill-opacity="1"><g transform="translate(60.208342, 204.683732)"><g><path d="M 28.015625 -31.453125 C 27.765625 -33.523438 26.765625 -35.132812 25.015625 -36.28125 C 23.273438 -37.425781 21.132812 -38 18.59375 -38 C 15.800781 -38 13.5625 -37.335938 11.875 -36.015625 C 10.1875 -34.703125 9.34375 -33.046875 9.34375 -31.046875 C 9.34375 -29.535156 9.800781 -28.316406 10.71875 -27.390625 C 11.632812 -26.472656 12.722656 -25.757812 13.984375 -25.25 C 15.253906 -24.738281 16.40625 -24.347656 17.4375 -24.078125 L 21.703125 -22.9375 C 22.796875 -22.644531 24.015625 -22.242188 25.359375 -21.734375 C 26.703125 -21.234375 27.988281 -20.550781 29.21875 -19.6875 C 30.457031 -18.820312 31.476562 -17.710938 32.28125 -16.359375 C 33.09375 -15.003906 33.5 -13.347656 33.5 -11.390625 C 33.5 -9.117188 32.90625 -7.066406 31.71875 -5.234375 C 30.539062 -3.410156 28.820312 -1.957031 26.5625 -0.875 C 24.300781 0.195312 21.5625 0.734375 18.34375 0.734375 C 13.84375 0.734375 10.265625 -0.328125 7.609375 -2.453125 C 4.960938 -4.585938 3.519531 -7.375 3.28125 -10.8125 L 8.515625 -10.8125 C 8.648438 -9.226562 9.1875 -7.921875 10.125 -6.890625 C 11.0625 -5.859375 12.25 -5.09375 13.6875 -4.59375 C 15.125 -4.09375 16.675781 -3.84375 18.34375 -3.84375 C 20.28125 -3.84375 22.019531 -4.160156 23.5625 -4.796875 C 25.101562 -5.429688 26.320312 -6.316406 27.21875 -7.453125 C 28.125 -8.597656 28.578125 -9.9375 28.578125 -11.46875 C 28.578125 -12.851562 28.1875 -13.984375 27.40625 -14.859375 C 26.632812 -15.734375 25.613281 -16.441406 24.34375 -16.984375 C 23.070312 -17.535156 21.703125 -18.015625 20.234375 -18.421875 L 15.0625 -19.90625 C 11.789062 -20.84375 9.195312 -22.1875 7.28125 -23.9375 C 5.375 -25.6875 4.421875 -27.972656 4.421875 -30.796875 C 4.421875 -33.140625 5.054688 -35.1875 6.328125 -36.9375 C 7.609375 -38.695312 9.328125 -40.0625 11.484375 -41.03125 C 13.648438 -42.007812 16.070312 -42.5 18.75 -42.5 C 21.457031 -42.5 23.859375 -42.019531 25.953125 -41.0625 C 28.054688 -40.101562 29.726562 -38.789062 30.96875 -37.125 C 32.207031 -35.457031 32.859375 -33.566406 32.921875 -31.453125 Z M 28.015625 -31.453125 "/></g></g></g><g fill="rgb(21.569824%, 21.569824%, 21.569824%)" fill-opacity="1"><g transform="translate(94.378859, 204.683732)"><g><path d="M 4.421875 0 L 4.421875 -31.453125 L 9.25 -31.453125 L 9.25 0 Z M 6.875 -36.6875 C 5.9375 -36.6875 5.128906 -37.003906 4.453125 -37.640625 C 3.773438 -38.285156 3.4375 -39.0625 3.4375 -39.96875 C 3.4375 -40.863281 3.773438 -41.628906 4.453125 -42.265625 C 5.128906 -42.910156 5.9375 -43.234375 6.875 -43.234375 C 7.820312 -43.234375 8.628906 -42.910156 9.296875 -42.265625 C 9.972656 -41.628906 10.3125 -40.863281 10.3125 -39.96875 C 10.3125 -39.0625 9.972656 -38.285156 9.296875 -37.640625 C 8.628906 -37.003906 7.820312 -36.6875 6.875 -36.6875 Z M 6.875 -36.6875 "/></g></g></g><g fill="rgb(21.569824%, 21.569824%, 21.569824%)" fill-opacity="1"><g transform="translate(105.458725, 204.683732)"><g><path d="M 18.09375 -31.453125 L 18.09375 -27.359375 L 11.390625 -27.359375 L 11.390625 -9.015625 C 11.390625 -7.648438 11.585938 -6.628906 11.984375 -5.953125 C 12.390625 -5.273438 12.910156 -4.820312 13.546875 -4.59375 C 14.179688 -4.375 14.851562 -4.265625 15.5625 -4.265625 C 16.09375 -4.265625 16.523438 -4.289062 16.859375 -4.34375 C 17.203125 -4.40625 17.476562 -4.457031 17.6875 -4.5 L 18.671875 -0.15625 C 18.347656 -0.0390625 17.890625 0.078125 17.296875 0.203125 C 16.710938 0.335938 15.96875 0.40625 15.0625 0.40625 C 13.695312 0.40625 12.363281 0.113281 11.0625 -0.46875 C 9.757812 -1.050781 8.679688 -1.941406 7.828125 -3.140625 C 6.972656 -4.347656 6.546875 -5.867188 6.546875 -7.703125 L 6.546875 -27.359375 L 1.796875 -27.359375 L 1.796875 -31.453125 L 6.546875 -31.453125 L 6.546875 -38.984375 L 11.390625 -38.984375 L 11.390625 -31.453125 Z M 18.09375 -31.453125 "/></g></g></g><g fill="rgb(21.569824%, 21.569824%, 21.569824%)" fill-opacity="1"><g transform="translate(123.826061, 204.683732)"><g><path d="M 17.609375 0.65625 C 14.578125 0.65625 11.960938 -0.015625 9.765625 -1.359375 C 7.578125 -2.703125 5.894531 -4.582031 4.71875 -7 C 3.539062 -9.425781 2.953125 -12.253906 2.953125 -15.484375 C 2.953125 -18.703125 3.539062 -21.539062 4.71875 -24 C 5.894531 -26.46875 7.546875 -28.394531 9.671875 -29.78125 C 11.796875 -31.164062 14.273438 -31.859375 17.109375 -31.859375 C 18.753906 -31.859375 20.375 -31.582031 21.96875 -31.03125 C 23.5625 -30.488281 25.015625 -29.609375 26.328125 -28.390625 C 27.640625 -27.171875 28.679688 -25.554688 29.453125 -23.546875 C 30.234375 -21.535156 30.625 -19.066406 30.625 -16.140625 L 30.625 -14.09375 L 7.796875 -14.09375 C 7.910156 -10.726562 8.863281 -8.148438 10.65625 -6.359375 C 12.445312 -4.578125 14.765625 -3.6875 17.609375 -3.6875 C 19.503906 -3.6875 21.132812 -4.09375 22.5 -4.90625 C 23.863281 -5.726562 24.851562 -6.957031 25.46875 -8.59375 L 30.140625 -7.28125 C 29.398438 -4.90625 27.925781 -2.988281 25.71875 -1.53125 C 23.507812 -0.0703125 20.804688 0.65625 17.609375 0.65625 Z M 7.796875 -18.265625 L 25.71875 -18.265625 C 25.71875 -20.921875 24.9375 -23.125 23.375 -24.875 C 21.820312 -26.632812 19.734375 -27.515625 17.109375 -27.515625 C 15.273438 -27.515625 13.679688 -27.082031 12.328125 -26.21875 C 10.972656 -25.363281 9.90625 -24.226562 9.125 -22.8125 C 8.351562 -21.40625 7.910156 -19.890625 7.796875 -18.265625 Z M 7.796875 -18.265625 "/></g></g></g><g fill="rgb(0%, 29.019165%, 67.83905%)" fill-opacity="1"><g transform="translate(154.802086, 204.683732)"><g><path d="M 40.640625 -27.25 L 31.671875 -27.25 C 31.328125 -29.5625 30.34375 -31.375 28.71875 -32.6875 C 27.101562 -34 25.078125 -34.65625 22.640625 -34.65625 C 19.390625 -34.65625 16.785156 -33.460938 14.828125 -31.078125 C 12.867188 -28.703125 11.890625 -25.332031 11.890625 -20.96875 C 11.890625 -16.488281 12.875 -13.082031 14.84375 -10.75 C 16.820312 -8.425781 19.398438 -7.265625 22.578125 -7.265625 C 24.941406 -7.265625 26.941406 -7.878906 28.578125 -9.109375 C 30.222656 -10.347656 31.253906 -12.085938 31.671875 -14.328125 L 40.640625 -14.296875 C 40.328125 -11.722656 39.410156 -9.300781 37.890625 -7.03125 C 36.378906 -4.769531 34.320312 -2.9375 31.71875 -1.53125 C 29.125 -0.125 26.03125 0.578125 22.4375 0.578125 C 18.695312 0.578125 15.351562 -0.265625 12.40625 -1.953125 C 9.46875 -3.648438 7.148438 -6.101562 5.453125 -9.3125 C 3.753906 -12.519531 2.90625 -16.40625 2.90625 -20.96875 C 2.90625 -25.539062 3.765625 -29.429688 5.484375 -32.640625 C 7.203125 -35.847656 9.535156 -38.289062 12.484375 -39.96875 C 15.429688 -41.65625 18.75 -42.5 22.4375 -42.5 C 25.675781 -42.5 28.59375 -41.898438 31.1875 -40.703125 C 33.789062 -39.515625 35.921875 -37.785156 37.578125 -35.515625 C 39.234375 -33.242188 40.253906 -30.488281 40.640625 -27.25 Z M 40.640625 -27.25 "/></g></g></g><g fill="rgb(0%, 29.019165%, 67.83905%)" fill-opacity="1"><g transform="translate(195.564079, 204.683732)"><g><path d="M 12.203125 -18.1875 L 12.203125 0 L 3.484375 0 L 3.484375 -41.9375 L 11.953125 -41.9375 L 11.953125 -25.90625 L 12.328125 -25.90625 C 13.046875 -27.757812 14.191406 -29.210938 15.765625 -30.265625 C 17.347656 -31.328125 19.332031 -31.859375 21.71875 -31.859375 C 25 -31.859375 27.632812 -30.804688 29.625 -28.703125 C 31.613281 -26.597656 32.601562 -23.707031 32.59375 -20.03125 L 32.59375 0 L 23.875 0 L 23.875 -18.46875 C 23.882812 -20.40625 23.394531 -21.910156 22.40625 -22.984375 C 21.414062 -24.066406 20.035156 -24.609375 18.265625 -24.609375 C 16.484375 -24.609375 15.03125 -24.046875 13.90625 -22.921875 C 12.78125 -21.796875 12.210938 -20.21875 12.203125 -18.1875 Z M 12.203125 -18.1875 "/></g></g></g><g fill="rgb(0%, 29.019165%, 67.83905%)" fill-opacity="1"><g transform="translate(228.956717, 204.683732)"><g><path d="M 17.8125 0.609375 C 14.59375 0.609375 11.816406 -0.046875 9.484375 -1.359375 C 7.148438 -2.679688 5.351562 -4.550781 4.09375 -6.96875 C 2.84375 -9.394531 2.21875 -12.265625 2.21875 -15.578125 C 2.21875 -18.816406 2.84375 -21.65625 4.09375 -24.09375 C 5.351562 -26.539062 7.125 -28.445312 9.40625 -29.8125 C 11.695312 -31.175781 14.382812 -31.859375 17.46875 -31.859375 C 20.238281 -31.859375 22.738281 -31.269531 24.96875 -30.09375 C 27.195312 -28.925781 28.96875 -27.15625 30.28125 -24.78125 C 31.59375 -22.414062 32.25 -19.453125 32.25 -15.890625 L 32.25 -13.5 L 10.828125 -13.5 L 10.828125 -13.46875 C 10.828125 -11.125 11.46875 -9.273438 12.75 -7.921875 C 14.039062 -6.566406 15.773438 -5.890625 17.953125 -5.890625 C 19.410156 -5.890625 20.671875 -6.195312 21.734375 -6.8125 C 22.804688 -7.425781 23.5625 -8.335938 24 -9.546875 L 32.0625 -9.015625 C 31.445312 -6.085938 29.890625 -3.75 27.390625 -2 C 24.890625 -0.257812 21.695312 0.609375 17.8125 0.609375 Z M 10.828125 -18.890625 L 24.03125 -18.890625 C 24.019531 -20.765625 23.421875 -22.304688 22.234375 -23.515625 C 21.046875 -24.734375 19.503906 -25.34375 17.609375 -25.34375 C 15.671875 -25.34375 14.078125 -24.710938 12.828125 -23.453125 C 11.585938 -22.203125 10.921875 -20.679688 10.828125 -18.890625 Z M 10.828125 -18.890625 "/></g></g></g><g fill="rgb(0%, 29.019165%, 67.83905%)" fill-opacity="1"><g transform="translate(260.814079, 204.683732)"><g><path d="M 17.8125 0.609375 C 14.59375 0.609375 11.816406 -0.046875 9.484375 -1.359375 C 7.148438 -2.679688 5.351562 -4.550781 4.09375 -6.96875 C 2.84375 -9.394531 2.21875 -12.265625 2.21875 -15.578125 C 2.21875 -18.816406 2.84375 -21.65625 4.09375 -24.09375 C 5.351562 -26.539062 7.125 -28.445312 9.40625 -29.8125 C 11.695312 -31.175781 14.382812 -31.859375 17.46875 -31.859375 C 20.238281 -31.859375 22.738281 -31.269531 24.96875 -30.09375 C 27.195312 -28.925781 28.96875 -27.15625 30.28125 -24.78125 C 31.59375 -22.414062 32.25 -19.453125 32.25 -15.890625 L 32.25 -13.5 L 10.828125 -13.5 L 10.828125 -13.46875 C 10.828125 -11.125 11.46875 -9.273438 12.75 -7.921875 C 14.039062 -6.566406 15.773438 -5.890625 17.953125 -5.890625 C 19.410156 -5.890625 20.671875 -6.195312 21.734375 -6.8125 C 22.804688 -7.425781 23.5625 -8.335938 24 -9.546875 L 32.0625 -9.015625 C 31.445312 -6.085938 29.890625 -3.75 27.390625 -2 C 24.890625 -0.257812 21.695312 0.609375 17.8125 0.609375 Z M 10.828125 -18.890625 L 24.03125 -18.890625 C 24.019531 -20.765625 23.421875 -22.304688 22.234375 -23.515625 C 21.046875 -24.734375 19.503906 -25.34375 17.609375 -25.34375 C 15.671875 -25.34375 14.078125 -24.710938 12.828125 -23.453125 C 11.585938 -22.203125 10.921875 -20.679688 10.828125 -18.890625 Z M 10.828125 -18.890625 "/></g></g></g><g fill="rgb(0%, 29.019165%, 67.83905%)" fill-opacity="1"><g transform="translate(292.671431, 204.683732)"><g><path d="M 3.484375 0 L 3.484375 -31.453125 L 11.9375 -31.453125 L 11.9375 -25.96875 L 12.265625 -25.96875 C 12.835938 -27.914062 13.796875 -29.390625 15.140625 -30.390625 C 16.484375 -31.398438 18.039062 -31.90625 19.8125 -31.90625 C 20.664062 -31.90625 21.453125 -31.800781 22.171875 -31.59375 C 22.898438 -31.382812 23.550781 -31.101562 24.125 -30.75 L 21.5 -23.546875 C 21.09375 -23.753906 20.644531 -23.925781 20.15625 -24.0625 C 19.675781 -24.207031 19.132812 -24.28125 18.53125 -24.28125 C 16.769531 -24.28125 15.273438 -23.675781 14.046875 -22.46875 C 12.828125 -21.269531 12.210938 -19.710938 12.203125 -17.796875 L 12.203125 0 Z M 3.484375 0 "/></g></g></g><g clip-path="url(#id3)"><g clip-path="url(#id4)"><g clip-path="url(#id5)"><path fill="rgb(0%, 29.019165%, 67.83905%)" d="M 105.480469 166.335938 C 105.363281 166.625 105.21875 166.898438 105.046875 167.15625 C 104.875 167.417969 104.679688 167.65625 104.460938 167.878906 C 104.242188 168.101562 104.003906 168.296875 103.746094 168.472656 C 103.492188 168.648438 103.21875 168.792969 102.933594 168.914062 C 102.644531 169.035156 102.351562 169.128906 102.046875 169.191406 C 101.742188 169.253906 101.4375 169.285156 101.125 169.289062 C 100.816406 169.289062 100.507812 169.261719 100.203125 169.203125 C 99.902344 169.144531 99.605469 169.054688 99.316406 168.9375 C 99.03125 168.820312 98.757812 168.675781 98.5 168.507812 C 98.242188 168.335938 98.003906 168.140625 97.78125 167.921875 C 97.5625 167.703125 97.367188 167.464844 97.191406 167.207031 C 97.019531 166.949219 96.871094 166.679688 96.753906 166.390625 C 96.632812 166.105469 96.542969 165.808594 96.480469 165.503906 C 96.417969 165.199219 96.386719 164.890625 96.386719 164.582031 C 96.386719 164.269531 96.414062 163.960938 96.472656 163.65625 C 96.535156 163.351562 96.621094 163.054688 96.738281 162.765625 C 96.859375 162.480469 97.003906 162.203125 97.171875 161.945312 C 97.34375 161.683594 97.539062 161.445312 97.757812 161.222656 C 97.976562 161.003906 98.214844 160.804688 98.472656 160.628906 C 98.730469 160.457031 99 160.308594 99.285156 160.1875 C 99.574219 160.066406 99.867188 159.976562 100.171875 159.914062 C 100.476562 159.847656 100.78125 159.816406 101.09375 159.816406 C 101.402344 159.8125 101.710938 159.839844 102.015625 159.902344 C 102.320312 159.960938 102.613281 160.046875 102.902344 160.164062 C 103.1875 160.28125 103.460938 160.425781 103.71875 160.597656 C 103.976562 160.769531 104.21875 160.960938 104.4375 161.179688 C 104.65625 161.398438 104.855469 161.636719 105.027344 161.894531 C 105.199219 162.152344 105.347656 162.425781 105.464844 162.710938 C 105.585938 162.996094 105.675781 163.292969 105.738281 163.597656 C 105.800781 163.902344 105.832031 164.210938 105.832031 164.519531 C 105.832031 164.832031 105.804688 165.140625 105.746094 165.445312 C 105.6875 165.75 105.597656 166.046875 105.480469 166.335938 Z M 105.480469 166.335938 " fill-opacity="1" fill-rule="nonzero"/></g></g></g><g clip-path="url(#id6)"><g clip-path="url(#id7)"><g clip-path="url(#id8)"><path fill="rgb(0%, 29.019165%, 67.83905%)" d="M 88.308594 161.5625 C 88.253906 161.539062 88.253906 161.539062 88.199219 161.519531 L 81.214844 157.707031 C 80.636719 157.40625 80.425781 156.679688 80.75 156.042969 C 81.050781 155.460938 81.828125 155.269531 82.40625 155.570312 L 89.390625 159.382812 C 89.96875 159.679688 90.183594 160.410156 89.859375 161.042969 C 89.558594 161.625 88.886719 161.863281 88.308594 161.5625 Z M 88.308594 161.5625 " fill-opacity="1" fill-rule="nonzero"/></g></g></g><g clip-path="url(#id9)"><g clip-path="url(#id10)"><g clip-path="url(#id11)"><path fill="rgb(0%, 29.019165%, 67.83905%)" d="M 96.292969 154.652344 C 95.96875 154.515625 95.761719 154.242188 95.632812 153.933594 L 93.121094 146.507812 C 92.9375 145.855469 93.285156 145.167969 93.878906 144.960938 C 94.527344 144.777344 95.238281 145.066406 95.417969 145.71875 L 97.929688 153.144531 C 98.109375 153.792969 97.765625 154.484375 97.171875 154.6875 C 96.886719 154.765625 96.566406 154.761719 96.292969 154.652344 Z M 96.292969 154.652344 " fill-opacity="1" fill-rule="nonzero"/></g></g></g><g clip-path="url(#id12)"><g clip-path="url(#id13)"><g clip-path="url(#id14)"><path fill="rgb(0%, 29.019165%, 67.83905%)" d="M 105.363281 155.539062 C 105.308594 155.515625 105.308594 155.515625 105.253906 155.496094 C 104.675781 155.195312 104.484375 154.414062 104.785156 153.832031 L 108.683594 146.785156 C 108.984375 146.203125 109.765625 146.011719 110.34375 146.3125 C 110.921875 146.613281 111.113281 147.394531 110.8125 147.972656 L 106.914062 155.019531 C 106.636719 155.546875 105.910156 155.761719 105.363281 155.539062 Z M 105.363281 155.539062 " fill-opacity="1" fill-rule="nonzero"/></g></g></g><g clip-path="url(#id15)"><g clip-path="url(#id16)"><g clip-path="url(#id17)"><path fill="rgb(0%, 29.019165%, 67.83905%)" d="M 112.058594 162.242188 C 111.785156 162.128906 111.613281 161.929688 111.460938 161.675781 C 111.125 161.09375 111.363281 160.355469 112 160.042969 L 120.46875 155.695312 C 121.054688 155.355469 121.785156 155.589844 122.097656 156.230469 C 122.433594 156.816406 122.195312 157.550781 121.558594 157.867188 L 113.089844 162.214844 C 112.757812 162.398438 112.386719 162.375 112.058594 162.242188 Z M 112.058594 162.242188 " fill-opacity="1" fill-rule="nonzero"/></g></g></g></svg>