<svg xmlns="http://www.w3.org/2000/svg" xmlns:xlink="http://www.w3.org/1999/xlink" width="539" zoomAndPan="magnify" viewBox="0 0 404.25 119.999999" height="160" preserveAspectRatio="xMidYMid meet" version="1.0"><defs><g/><clipPath id="id1"><path d="M 57 25 L 73 25 L 73 41 L 57 41 Z M 57 25 " clip-rule="nonzero"/></clipPath><clipPath id="id2"><path d="M 45.117188 -9.792969 L 101.253906 13.132812 L 86.25 49.863281 L 30.113281 26.9375 Z M 45.117188 -9.792969 " clip-rule="nonzero"/></clipPath><clipPath id="id3"><path d="M 45.117188 -9.792969 L 101.253906 13.132812 L 86.25 49.863281 L 30.113281 26.9375 Z M 45.117188 -9.792969 " clip-rule="nonzero"/></clipPath><clipPath id="id4"><path d="M 32 18 L 48 18 L 48 29 L 32 29 Z M 32 18 " clip-rule="nonzero"/></clipPath><clipPath id="id5"><path d="M 45.117188 -9.792969 L 101.253906 13.132812 L 86.25 49.863281 L 30.113281 26.9375 Z M 45.117188 -9.792969 " clip-rule="nonzero"/></clipPath><clipPath id="id6"><path d="M 45.117188 -9.792969 L 101.253906 13.132812 L 86.25 49.863281 L 30.113281 26.9375 Z M 45.117188 -9.792969 " clip-rule="nonzero"/></clipPath><clipPath id="id7"><path d="M 52 2 L 60 2 L 60 18 L 52 18 Z M 52 2 " clip-rule="nonzero"/></clipPath><clipPath id="id8"><path d="M 45.117188 -9.792969 L 101.253906 13.132812 L 86.25 49.863281 L 30.113281 26.9375 Z M 45.117188 -9.792969 " clip-rule="nonzero"/></clipPath><clipPath id="id9"><path d="M 45.117188 -9.792969 L 101.253906 13.132812 L 86.25 49.863281 L 30.113281 26.9375 Z M 45.117188 -9.792969 " clip-rule="nonzero"/></clipPath><clipPath id="id10"><path d="M 70 4 L 81 4 L 81 20 L 70 20 Z M 70 4 " clip-rule="nonzero"/></clipPath><clipPath id="id11"><path d="M 45.117188 -9.792969 L 101.253906 13.132812 L 86.25 49.863281 L 30.113281 26.9375 Z M 45.117188 -9.792969 " clip-rule="nonzero"/></clipPath><clipPath id="id12"><path d="M 45.117188 -9.792969 L 101.253906 13.132812 L 86.25 49.863281 L 30.113281 26.9375 Z M 45.117188 -9.792969 " clip-rule="nonzero"/></clipPath><clipPath id="id13"><path d="M 80 18 L 98 18 L 98 30 L 80 30 Z M 80 18 " clip-rule="nonzero"/></clipPath><clipPath id="id14"><path d="M 45.117188 -9.792969 L 101.253906 13.132812 L 86.25 49.863281 L 30.113281 26.9375 Z M 45.117188 -9.792969 " clip-rule="nonzero"/></clipPath><clipPath id="id15"><path d="M 45.117188 -9.792969 L 101.253906 13.132812 L 86.25 49.863281 L 30.113281 26.9375 Z M 45.117188 -9.792969 " clip-rule="nonzero"/></clipPath></defs><g fill="rgb(21.569824%, 21.569824%, 21.569824%)" fill-opacity="1"><g transform="translate(0, 92.917181)"><g><path d="M 43.546875 -48.890625 C 43.160156 -52.117188 41.609375 -54.625 38.890625 -56.40625 C 36.179688 -58.1875 32.851562 -59.078125 28.90625 -59.078125 C 24.570312 -59.078125 21.085938 -58.050781 18.453125 -56 C 15.828125 -53.957031 14.515625 -51.378906 14.515625 -48.265625 C 14.515625 -45.921875 15.226562 -44.03125 16.65625 -42.59375 C 18.09375 -41.164062 19.789062 -40.054688 21.75 -39.265625 C 23.71875 -38.472656 25.507812 -37.863281 27.125 -37.4375 L 33.75 -35.65625 C 35.445312 -35.207031 37.335938 -34.585938 39.421875 -33.796875 C 41.515625 -33.015625 43.519531 -31.945312 45.4375 -30.59375 C 47.363281 -29.25 48.953125 -27.523438 50.203125 -25.421875 C 51.453125 -23.328125 52.078125 -20.753906 52.078125 -17.703125 C 52.078125 -14.179688 51.160156 -11 49.328125 -8.15625 C 47.492188 -5.3125 44.816406 -3.050781 41.296875 -1.375 C 37.785156 0.300781 33.523438 1.140625 28.515625 1.140625 C 21.515625 1.140625 15.957031 -0.507812 11.84375 -3.8125 C 7.726562 -7.125 5.476562 -11.457031 5.09375 -16.8125 L 13.25 -16.8125 C 13.457031 -14.34375 14.285156 -12.304688 15.734375 -10.703125 C 17.191406 -9.109375 19.039062 -7.921875 21.28125 -7.140625 C 23.519531 -6.367188 25.929688 -5.984375 28.515625 -5.984375 C 31.535156 -5.984375 34.242188 -6.472656 36.640625 -7.453125 C 39.035156 -8.441406 40.929688 -9.820312 42.328125 -11.59375 C 43.734375 -13.375 44.4375 -15.453125 44.4375 -17.828125 C 44.4375 -19.992188 43.832031 -21.753906 42.625 -23.109375 C 41.414062 -24.460938 39.820312 -25.5625 37.84375 -26.40625 C 35.875 -27.257812 33.742188 -28.007812 31.453125 -28.65625 L 23.421875 -30.9375 C 18.328125 -32.40625 14.296875 -34.492188 11.328125 -37.203125 C 8.359375 -39.921875 6.875 -43.476562 6.875 -47.875 C 6.875 -51.53125 7.863281 -54.71875 9.84375 -57.4375 C 11.832031 -60.164062 14.507812 -62.285156 17.875 -63.796875 C 21.238281 -65.316406 25 -66.078125 29.15625 -66.078125 C 33.363281 -66.078125 37.097656 -65.328125 40.359375 -63.828125 C 43.628906 -62.335938 46.222656 -60.296875 48.140625 -57.703125 C 50.066406 -55.117188 51.082031 -52.179688 51.1875 -48.890625 Z M 43.546875 -48.890625 "/></g></g></g><g fill="rgb(21.569824%, 21.569824%, 21.569824%)" fill-opacity="1"><g transform="translate(53.126662, 92.917181)"><g><path d="M 6.875 0 L 6.875 -48.890625 L 14.390625 -48.890625 L 14.390625 0 Z M 10.703125 -57.046875 C 9.234375 -57.046875 7.972656 -57.539062 6.921875 -58.53125 C 5.867188 -59.53125 5.34375 -60.734375 5.34375 -62.140625 C 5.34375 -63.535156 5.867188 -64.734375 6.921875 -65.734375 C 7.972656 -66.734375 9.234375 -67.234375 10.703125 -67.234375 C 12.160156 -67.234375 13.414062 -66.734375 14.46875 -65.734375 C 15.519531 -64.734375 16.046875 -63.535156 16.046875 -62.140625 C 16.046875 -60.734375 15.519531 -59.53125 14.46875 -58.53125 C 13.414062 -57.539062 12.160156 -57.046875 10.703125 -57.046875 Z M 10.703125 -57.046875 "/></g></g></g><g fill="rgb(21.569824%, 21.569824%, 21.569824%)" fill-opacity="1"><g transform="translate(70.3531, 92.917181)"><g><path d="M 28.140625 -48.890625 L 28.140625 -42.53125 L 17.703125 -42.53125 L 17.703125 -14 C 17.703125 -11.882812 18.015625 -10.300781 18.640625 -9.25 C 19.265625 -8.195312 20.066406 -7.492188 21.046875 -7.140625 C 22.035156 -6.796875 23.082031 -6.625 24.1875 -6.625 C 25.019531 -6.625 25.703125 -6.671875 26.234375 -6.765625 C 26.765625 -6.859375 27.1875 -6.9375 27.5 -7 L 29.03125 -0.25 C 28.519531 -0.0625 27.804688 0.128906 26.890625 0.328125 C 25.984375 0.535156 24.828125 0.640625 23.421875 0.640625 C 21.304688 0.640625 19.234375 0.1875 17.203125 -0.71875 C 15.179688 -1.632812 13.503906 -3.023438 12.171875 -4.890625 C 10.847656 -6.765625 10.1875 -9.125 10.1875 -11.96875 L 10.1875 -42.53125 L 2.796875 -42.53125 L 2.796875 -48.890625 L 10.1875 -48.890625 L 10.1875 -60.609375 L 17.703125 -60.609375 L 17.703125 -48.890625 Z M 28.140625 -48.890625 "/></g></g></g><g fill="rgb(21.569824%, 21.569824%, 21.569824%)" fill-opacity="1"><g transform="translate(98.909744, 92.917181)"><g><path d="M 27.375 1.015625 C 22.664062 1.015625 18.609375 -0.0234375 15.203125 -2.109375 C 11.796875 -4.203125 9.171875 -7.128906 7.328125 -10.890625 C 5.492188 -14.660156 4.578125 -19.050781 4.578125 -24.0625 C 4.578125 -29.070312 5.492188 -33.488281 7.328125 -37.3125 C 9.171875 -41.144531 11.738281 -44.140625 15.03125 -46.296875 C 18.332031 -48.453125 22.191406 -49.53125 26.609375 -49.53125 C 29.160156 -49.53125 31.675781 -49.101562 34.15625 -48.25 C 36.632812 -47.40625 38.894531 -46.03125 40.9375 -44.125 C 42.976562 -42.226562 44.601562 -39.71875 45.8125 -36.59375 C 47.019531 -33.476562 47.625 -29.640625 47.625 -25.078125 L 47.625 -21.90625 L 12.125 -21.90625 C 12.300781 -16.675781 13.78125 -12.671875 16.5625 -9.890625 C 19.351562 -7.117188 22.957031 -5.734375 27.375 -5.734375 C 30.320312 -5.734375 32.859375 -6.367188 34.984375 -7.640625 C 37.109375 -8.910156 38.644531 -10.820312 39.59375 -13.375 L 46.859375 -11.328125 C 45.710938 -7.640625 43.421875 -4.660156 39.984375 -2.390625 C 36.546875 -0.117188 32.34375 1.015625 27.375 1.015625 Z M 12.125 -28.390625 L 39.984375 -28.390625 C 39.984375 -32.535156 38.769531 -35.96875 36.34375 -38.6875 C 33.925781 -41.414062 30.679688 -42.78125 26.609375 -42.78125 C 23.742188 -42.78125 21.257812 -42.109375 19.15625 -40.765625 C 17.0625 -39.429688 15.410156 -37.664062 14.203125 -35.46875 C 12.992188 -33.28125 12.300781 -30.921875 12.125 -28.390625 Z M 12.125 -28.390625 "/></g></g></g><g fill="rgb(0%, 29.019165%, 67.83905%)" fill-opacity="1"><g transform="translate(147.069765, 92.917181)"><g><path d="M 63.1875 -42.375 L 49.25 -42.375 C 48.71875 -45.957031 47.1875 -48.769531 44.65625 -50.8125 C 42.132812 -52.863281 38.984375 -53.890625 35.203125 -53.890625 C 30.148438 -53.890625 26.101562 -52.035156 23.0625 -48.328125 C 20.019531 -44.628906 18.5 -39.382812 18.5 -32.59375 C 18.5 -25.632812 20.03125 -20.34375 23.09375 -16.71875 C 26.15625 -13.101562 30.160156 -11.296875 35.109375 -11.296875 C 38.785156 -11.296875 41.894531 -12.253906 44.4375 -14.171875 C 46.988281 -16.097656 48.59375 -18.800781 49.25 -22.28125 L 63.1875 -22.21875 C 62.695312 -18.226562 61.273438 -14.472656 58.921875 -10.953125 C 56.566406 -7.429688 53.367188 -4.578125 49.328125 -2.390625 C 45.285156 -0.203125 40.472656 0.890625 34.890625 0.890625 C 29.078125 0.890625 23.882812 -0.421875 19.3125 -3.046875 C 14.738281 -5.679688 11.128906 -9.492188 8.484375 -14.484375 C 5.835938 -19.472656 4.515625 -25.507812 4.515625 -32.59375 C 4.515625 -39.707031 5.851562 -45.753906 8.53125 -50.734375 C 11.207031 -55.722656 14.835938 -59.523438 19.421875 -62.140625 C 24.003906 -64.765625 29.160156 -66.078125 34.890625 -66.078125 C 39.921875 -66.078125 44.457031 -65.148438 48.5 -63.296875 C 52.539062 -61.441406 55.847656 -58.742188 58.421875 -55.203125 C 61.003906 -51.671875 62.59375 -47.394531 63.1875 -42.375 Z M 63.1875 -42.375 "/></g></g></g><g fill="rgb(0%, 29.019165%, 67.83905%)" fill-opacity="1"><g transform="translate(210.444533, 92.917181)"><g><path d="M 18.96875 -28.265625 L 18.96875 0 L 5.40625 0 L 5.40625 -65.1875 L 18.59375 -65.1875 L 18.59375 -40.265625 L 19.15625 -40.265625 C 20.28125 -43.148438 22.066406 -45.414062 24.515625 -47.0625 C 26.972656 -48.707031 30.0625 -49.53125 33.78125 -49.53125 C 38.875 -49.53125 42.96875 -47.894531 46.0625 -44.625 C 49.15625 -41.363281 50.691406 -36.863281 50.671875 -31.125 L 50.671875 0 L 37.109375 0 L 37.109375 -28.71875 C 37.140625 -31.726562 36.382812 -34.070312 34.84375 -35.75 C 33.300781 -37.425781 31.148438 -38.265625 28.390625 -38.265625 C 25.628906 -38.265625 23.375 -37.390625 21.625 -35.640625 C 19.875 -33.890625 18.988281 -31.429688 18.96875 -28.265625 Z M 18.96875 -28.265625 "/></g></g></g><g fill="rgb(0%, 29.019165%, 67.83905%)" fill-opacity="1"><g transform="translate(262.361788, 92.917181)"><g><path d="M 27.6875 0.953125 C 22.6875 0.953125 18.367188 -0.0664062 14.734375 -2.109375 C 11.109375 -4.160156 8.316406 -7.066406 6.359375 -10.828125 C 4.410156 -14.597656 3.4375 -19.0625 3.4375 -24.21875 C 3.4375 -29.25 4.410156 -33.664062 6.359375 -37.46875 C 8.316406 -41.269531 11.070312 -44.226562 14.625 -46.34375 C 18.175781 -48.46875 22.351562 -49.53125 27.15625 -49.53125 C 31.457031 -49.53125 35.34375 -48.617188 38.8125 -46.796875 C 42.289062 -44.972656 45.046875 -42.21875 47.078125 -38.53125 C 49.117188 -34.851562 50.140625 -30.242188 50.140625 -24.703125 L 50.140625 -20.984375 L 16.84375 -20.984375 L 16.84375 -20.953125 C 16.84375 -17.296875 17.835938 -14.414062 19.828125 -12.3125 C 21.828125 -10.21875 24.523438 -9.171875 27.921875 -9.171875 C 30.191406 -9.171875 32.15625 -9.644531 33.8125 -10.59375 C 35.46875 -11.550781 36.632812 -12.960938 37.3125 -14.828125 L 49.84375 -14 C 48.894531 -9.457031 46.476562 -5.828125 42.59375 -3.109375 C 38.707031 -0.398438 33.738281 0.953125 27.6875 0.953125 Z M 16.84375 -29.375 L 37.375 -29.375 C 37.351562 -32.289062 36.414062 -34.691406 34.5625 -36.578125 C 32.71875 -38.460938 30.320312 -39.40625 27.375 -39.40625 C 24.363281 -39.40625 21.890625 -38.425781 19.953125 -36.46875 C 18.023438 -34.519531 16.988281 -32.15625 16.84375 -29.375 Z M 16.84375 -29.375 "/></g></g></g><g fill="rgb(0%, 29.019165%, 67.83905%)" fill-opacity="1"><g transform="translate(311.89207, 92.917181)"><g><path d="M 27.6875 0.953125 C 22.6875 0.953125 18.367188 -0.0664062 14.734375 -2.109375 C 11.109375 -4.160156 8.316406 -7.066406 6.359375 -10.828125 C 4.410156 -14.597656 3.4375 -19.0625 3.4375 -24.21875 C 3.4375 -29.25 4.410156 -33.664062 6.359375 -37.46875 C 8.316406 -41.269531 11.070312 -44.226562 14.625 -46.34375 C 18.175781 -48.46875 22.351562 -49.53125 27.15625 -49.53125 C 31.457031 -49.53125 35.34375 -48.617188 38.8125 -46.796875 C 42.289062 -44.972656 45.046875 -42.21875 47.078125 -38.53125 C 49.117188 -34.851562 50.140625 -30.242188 50.140625 -24.703125 L 50.140625 -20.984375 L 16.84375 -20.984375 L 16.84375 -20.953125 C 16.84375 -17.296875 17.835938 -14.414062 19.828125 -12.3125 C 21.828125 -10.21875 24.523438 -9.171875 27.921875 -9.171875 C 30.191406 -9.171875 32.15625 -9.644531 33.8125 -10.59375 C 35.46875 -11.550781 36.632812 -12.960938 37.3125 -14.828125 L 49.84375 -14 C 48.894531 -9.457031 46.476562 -5.828125 42.59375 -3.109375 C 38.707031 -0.398438 33.738281 0.953125 27.6875 0.953125 Z M 16.84375 -29.375 L 37.375 -29.375 C 37.351562 -32.289062 36.414062 -34.691406 34.5625 -36.578125 C 32.71875 -38.460938 30.320312 -39.40625 27.375 -39.40625 C 24.363281 -39.40625 21.890625 -38.425781 19.953125 -36.46875 C 18.023438 -34.519531 16.988281 -32.15625 16.84375 -29.375 Z M 16.84375 -29.375 "/></g></g></g><g fill="rgb(0%, 29.019165%, 67.83905%)" fill-opacity="1"><g transform="translate(361.422334, 92.917181)"><g><path d="M 5.40625 0 L 5.40625 -48.890625 L 18.5625 -48.890625 L 18.5625 -40.359375 L 19.0625 -40.359375 C 19.957031 -43.398438 21.445312 -45.695312 23.53125 -47.25 C 25.625 -48.8125 28.050781 -49.59375 30.8125 -49.59375 C 32.125 -49.59375 33.34375 -49.429688 34.46875 -49.109375 C 35.59375 -48.796875 36.601562 -48.363281 37.5 -47.8125 L 33.421875 -36.609375 C 32.785156 -36.921875 32.085938 -37.1875 31.328125 -37.40625 C 30.578125 -37.632812 29.738281 -37.75 28.8125 -37.75 C 26.070312 -37.75 23.75 -36.816406 21.84375 -34.953125 C 19.945312 -33.085938 18.988281 -30.65625 18.96875 -27.65625 L 18.96875 0 Z M 5.40625 0 "/></g></g></g><g clip-path="url(#id1)"><g clip-path="url(#id2)"><g clip-path="url(#id3)"><path fill="rgb(0%, 29.019165%, 67.83905%)" d="M 71.644531 35.667969 C 71.460938 36.117188 71.234375 36.542969 70.96875 36.945312 C 70.703125 37.351562 70.398438 37.722656 70.058594 38.070312 C 69.71875 38.414062 69.351562 38.722656 68.949219 38.992188 C 68.550781 39.261719 68.128906 39.492188 67.683594 39.679688 C 67.238281 39.871094 66.777344 40.011719 66.304688 40.109375 C 65.832031 40.207031 65.355469 40.257812 64.875 40.261719 C 64.390625 40.265625 63.914062 40.21875 63.441406 40.128906 C 62.96875 40.039062 62.507812 39.902344 62.0625 39.71875 C 61.617188 39.535156 61.191406 39.3125 60.789062 39.046875 C 60.386719 38.78125 60.015625 38.476562 59.675781 38.136719 C 59.332031 37.796875 59.027344 37.425781 58.757812 37.027344 C 58.488281 36.625 58.261719 36.203125 58.074219 35.757812 C 57.886719 35.3125 57.746094 34.851562 57.652344 34.378906 C 57.554688 33.902344 57.507812 33.425781 57.503906 32.941406 C 57.503906 32.457031 57.550781 31.976562 57.640625 31.503906 C 57.734375 31.027344 57.871094 30.566406 58.054688 30.117188 C 58.238281 29.667969 58.464844 29.242188 58.730469 28.839844 C 58.996094 28.4375 59.300781 28.0625 59.640625 27.71875 C 59.980469 27.371094 60.347656 27.066406 60.75 26.792969 C 61.148438 26.523438 61.570312 26.292969 62.015625 26.105469 C 62.460938 25.917969 62.921875 25.773438 63.394531 25.675781 C 63.867188 25.578125 64.34375 25.527344 64.824219 25.523438 C 65.308594 25.523438 65.785156 25.566406 66.257812 25.65625 C 66.730469 25.75 67.191406 25.886719 67.636719 26.066406 C 68.082031 26.25 68.507812 26.472656 68.910156 26.738281 C 69.3125 27.007812 69.683594 27.308594 70.023438 27.648438 C 70.367188 27.988281 70.671875 28.359375 70.941406 28.757812 C 71.210938 29.160156 71.4375 29.582031 71.625 30.027344 C 71.8125 30.472656 71.953125 30.933594 72.046875 31.40625 C 72.144531 31.882812 72.191406 32.359375 72.191406 32.84375 C 72.195312 33.328125 72.148438 33.808594 72.058594 34.28125 C 71.964844 34.757812 71.828125 35.21875 71.644531 35.667969 Z M 71.644531 35.667969 " fill-opacity="1" fill-rule="nonzero"/></g></g></g><g clip-path="url(#id4)"><g clip-path="url(#id5)"><g clip-path="url(#id6)"><path fill="rgb(0%, 29.019165%, 67.83905%)" d="M 44.945312 28.246094 C 44.859375 28.214844 44.859375 28.214844 44.777344 28.179688 L 33.917969 22.25 C 33.019531 21.785156 32.6875 20.652344 33.191406 19.664062 C 33.660156 18.761719 34.875 18.460938 35.773438 18.925781 L 46.628906 24.855469 C 47.527344 25.320312 47.859375 26.453125 47.355469 27.441406 C 46.886719 28.34375 45.84375 28.714844 44.945312 28.246094 Z M 44.945312 28.246094 " fill-opacity="1" fill-rule="nonzero"/></g></g></g><g clip-path="url(#id7)"><g clip-path="url(#id8)"><g clip-path="url(#id9)"><path fill="rgb(0%, 29.019165%, 67.83905%)" d="M 57.367188 17.492188 C 56.855469 17.285156 56.535156 16.855469 56.335938 16.375 L 52.433594 4.824219 C 52.152344 3.8125 52.6875 2.738281 53.613281 2.417969 C 54.621094 2.132812 55.726562 2.585938 56.003906 3.597656 L 59.910156 15.144531 C 60.191406 16.15625 59.652344 17.230469 58.730469 17.550781 C 58.285156 17.667969 57.789062 17.664062 57.367188 17.492188 Z M 57.367188 17.492188 " fill-opacity="1" fill-rule="nonzero"/></g></g></g><g clip-path="url(#id10)"><g clip-path="url(#id11)"><g clip-path="url(#id12)"><path fill="rgb(0%, 29.019165%, 67.83905%)" d="M 71.46875 18.871094 C 71.382812 18.835938 71.382812 18.835938 71.296875 18.800781 C 70.398438 18.335938 70.101562 17.121094 70.570312 16.214844 L 76.632812 5.253906 C 77.101562 4.347656 78.316406 4.046875 79.214844 4.515625 C 80.113281 4.980469 80.410156 6.195312 79.941406 7.101562 L 73.878906 18.0625 C 73.445312 18.882812 72.316406 19.21875 71.46875 18.871094 Z M 71.46875 18.871094 " fill-opacity="1" fill-rule="nonzero"/></g></g></g><g clip-path="url(#id13)"><g clip-path="url(#id14)"><g clip-path="url(#id15)"><path fill="rgb(0%, 29.019165%, 67.83905%)" d="M 81.875 29.292969 C 81.453125 29.121094 81.183594 28.8125 80.945312 28.417969 C 80.425781 27.507812 80.792969 26.363281 81.789062 25.875 L 94.957031 19.105469 C 95.863281 18.582031 97.003906 18.949219 97.488281 19.941406 C 98.007812 20.851562 97.640625 21.996094 96.648438 22.484375 L 83.480469 29.253906 C 82.964844 29.539062 82.386719 29.503906 81.875 29.292969 Z M 81.875 29.292969 " fill-opacity="1" fill-rule="nonzero"/></g></g></g></svg>