<svg width="1512" height="181" fill="none" xmlns="http://www.w3.org/2000/svg"><g clip-path="url(#clip0_18_2)"><path fill="#fff" fill-opacity=".87" d="M0 0h1512v181H0z"/><path fill="#0057FF" fill-opacity=".1" d="M504 73h16v16h-16zM841 117h32v30h-32zM1058 76h32v30h-32zM1157 70h32v30h-32zM325 117h32v30h-32zM601 109h32v30h-32zM271 6h32v30h-32zM303 79h15v15h-15zM904 13h15v15h-15zM741 124h15v15h-15zM962 62h15v15h-15zM1142 21h15v15h-15zM1157 153h15v15h-15zM676 73h15v15h-15z"/><path fill="#0057FF" fill-opacity=".1" d="M468 36h44v45h-44zM873 59h39v35h-39zM691 6h37v38h-37zM1027 51h43v44h-43zM1207 124h43v44h-43z"/></g><defs><clipPath id="clip0_18_2"><path fill="#fff" d="M0 0h1512v181H0z"/></clipPath></defs></svg>