<?xml version="1.0" standalone="no"?>
<!DOCTYPE svg PUBLIC "-//W3C//DTD SVG 20010904//EN"
 "http://www.w3.org/TR/2001/REC-SVG-20010904/DTD/svg10.dtd">
<svg version="1.0" xmlns="http://www.w3.org/2000/svg"
 width="485.000000pt" height="133.000000pt" viewBox="0 0 485.000000 133.000000"
 preserveAspectRatio="xMidYMid meet">
<metadata>
Created by potrace 1.16, written by Peter Selinger 2001-2019
</metadata>
<g transform="translate(0.000000,133.000000) scale(0.100000,-0.100000)"
fill="#000000" stroke="none">
<path d="M42 1288 c-17 -17 -17 -1219 0 -1236 17 -17 1219 -17 1236 0 17 17
17 1219 0 1236 -17 17 -1219 17 -1236 0z m437 -344 c69 -20 141 -84 125 -110
-23 -39 -43 -41 -69 -7 -73 92 -255 78 -263 -20 -5 -58 24 -78 148 -106 58
-13 118 -30 133 -38 65 -33 87 -130 44 -194 -71 -108 -286 -112 -394 -7 -39
38 -40 47 -7 72 l26 18 41 -40 c59 -56 120 -73 206 -56 39 8 81 50 81 81 0 44
-38 67 -155 97 -60 15 -124 36 -141 47 -33 20 -64 72 -64 108 0 65 63 137 137
157 64 17 90 17 152 -2z m539 1 c51 -15 132 -79 132 -103 0 -6 -11 -19 -25
-28 -25 -16 -26 -15 -69 24 -48 44 -93 58 -154 48 -60 -9 -87 -36 -87 -86 0
-57 24 -74 142 -99 118 -26 165 -50 188 -97 21 -44 16 -105 -12 -143 -47 -65
-178 -94 -286 -62 -48 14 -137 82 -137 106 0 7 12 20 26 29 25 17 26 17 64
-23 45 -46 101 -65 173 -58 65 6 101 34 105 80 5 53 -20 71 -129 97 -165 38
-205 66 -216 148 -10 77 50 149 143 171 58 13 85 13 142 -4z"/>
<path d="M1704 906 c-42 -18 -64 -52 -64 -98 0 -61 31 -87 135 -112 71 -17 92
-27 109 -49 l20 -27 -21 -27 c-41 -56 -148 -52 -204 8 -26 28 -27 28 -44 9
-17 -19 -17 -21 13 -48 57 -53 155 -67 227 -32 46 22 65 53 65 105 0 48 -42
80 -135 100 -88 20 -117 40 -117 80 0 41 33 65 91 65 46 0 111 -29 111 -50 0
-14 26 -12 39 3 8 10 4 20 -17 39 -15 14 -37 31 -49 37 -30 15 -121 13 -159
-3z"/>
<path d="M3463 900 c-39 -23 -55 -52 -55 -97 0 -55 35 -82 138 -107 70 -17 91
-27 108 -49 l20 -27 -21 -27 c-41 -56 -148 -52 -204 8 -26 28 -27 28 -44 9
-17 -19 -17 -21 13 -48 102 -95 292 -51 292 68 0 54 -38 84 -137 106 -114 25
-150 68 -98 119 42 43 147 30 178 -22 10 -17 32 -17 46 0 8 10 4 20 -17 39
-41 39 -66 48 -129 48 -40 0 -68 -6 -90 -20z"/>
<path d="M4007 893 c-4 -3 -7 -21 -7 -40 0 -30 -3 -33 -30 -33 -23 0 -30 -4
-30 -20 0 -16 7 -20 30 -20 l30 0 0 -108 c0 -123 10 -147 65 -158 33 -6 95 10
95 25 -1 23 -18 31 -42 20 -32 -14 -65 1 -73 34 -3 12 -5 58 -3 102 l3 80 55
5 c40 4 55 9 55 20 0 11 -15 16 -55 20 l-55 5 -3 38 c-3 34 -18 48 -35 30z"/>
<path d="M2534 819 c-17 -5 -37 -16 -44 -24 -17 -21 -30 -19 -30 5 0 13 -7 20
-20 20 -19 0 -20 -7 -20 -215 l0 -215 25 0 c25 0 25 1 25 87 l0 86 26 -24 c34
-32 109 -34 151 -3 61 44 81 145 44 214 -30 56 -97 86 -157 69z m99 -57 c27
-24 40 -85 27 -131 -18 -67 -72 -95 -134 -71 -82 31 -68 207 18 223 30 6 68
-3 89 -21z"/>
<path d="M2896 818 c-69 -15 -106 -68 -106 -150 0 -120 113 -192 218 -139 40
20 53 43 33 56 -6 3 -25 -4 -43 -15 -63 -38 -134 -16 -157 50 -13 39 -13 39
119 42 l105 3 -3 40 c-7 88 -75 134 -166 113z"/>
<path d="M3274 819 c-17 -5 -37 -16 -44 -24 -17 -21 -30 -19 -30 6 0 14 -5 19
-17 17 -16 -3 -18 -20 -21 -151 l-3 -147 26 0 25 0 0 99 c0 92 2 102 26 130
19 23 34 31 59 31 35 0 56 27 33 42 -15 9 -13 9 -54 -3z"/>
<path d="M4325 820 c-47 -11 -74 -32 -95 -76 -26 -53 -25 -99 3 -154 28 -57
73 -82 140 -76 67 5 134 56 94 72 -9 3 -29 -4 -46 -17 -24 -17 -38 -21 -73
-16 -49 7 -91 46 -86 81 3 20 9 21 116 24 l112 3 0 30 c0 40 -26 94 -53 112
-29 18 -75 26 -112 17z"/>
<path d="M4645 815 c-48 -17 -65 -38 -65 -82 0 -45 27 -69 97 -83 76 -16 93
-26 93 -55 0 -53 -98 -60 -149 -11 -27 26 -28 26 -45 7 -16 -18 -16 -20 9 -39
67 -53 161 -54 208 -2 28 32 34 59 17 89 -11 21 -42 34 -117 51 -59 13 -78 30
-68 60 14 44 88 49 131 9 23 -22 57 -16 52 9 -4 19 -52 48 -93 56 -16 3 -48
-1 -70 -9z"/>
<path d="M2040 705 c0 -64 5 -125 11 -139 27 -57 135 -72 185 -25 l24 22 0
-21 c0 -15 6 -22 20 -22 19 0 20 7 20 150 0 143 -1 150 -20 150 -19 0 -20 -7
-20 -90 0 -98 -15 -151 -48 -169 -31 -17 -77 -13 -103 8 -22 18 -24 27 -27
135 -3 106 -5 116 -23 116 -18 0 -19 -8 -19 -115z"/>
</g>
</svg>
