<svg width="1512" height="982" fill="none" xmlns="http://www.w3.org/2000/svg"><g clip-path="url(#clip0_1_2)" fill="#0075FF"><path d="M75.035 283.087C14.534 280.796-36 308.511-36 308.511v50.048s50.534-27.716 111.035-25.425c43.332 1.641 35.798 17.268 79.525 18.21 52.803 1.136 45.133-25.403 96.031-21.989 27.834 1.867 23.584 11.556 52.516 12.025 33.34.54 28.206-11.901 60.519-13.858 55.547-3.363 47.083 25.563 104.033 23.822 43.534-1.331 35.681-17.616 79.525-18.21 49.359-.669 40.259 19.548 89.528 20.5 58.354 1.128 47.517-23.763 106.034-24.279 63.21-.558 51.316 25.738 114.536 26.226 67.638.523 55.216-26.477 122.539-28.059 82.709-1.942 67.429 34.992 150.549 34.473 78.69-.492 64.28-34.593 142.54-32.64 62.89 1.569 52.12 23.879 114.54 26.226 86.95 3.27 159.55-36.533 159.55-36.533V269s-72.6 39.804-159.55 36.534c-62.42-2.348-51.65-24.658-114.54-26.227-78.26-1.952-63.85 32.148-142.54 32.64-83.12.52-67.84-36.415-150.549-34.472-67.323 1.581-54.901 28.581-122.539 28.059-63.22-.489-51.326-26.785-114.536-26.227-58.517.517-47.68 25.407-106.034 24.28-49.269-.953-40.169-21.169-89.528-20.5-43.844.594-35.991 16.878-79.525 18.209-56.95 1.741-48.486-27.184-104.033-23.821-32.313 1.956-27.179 14.398-60.519 13.857-28.932-.469-24.682-10.158-52.516-12.025-50.898-3.414-43.228 23.126-96.031 21.989-43.727-.941-36.193-16.569-79.525-18.209z" fill-opacity=".1"/><path d="M75.035 333.238C14.534 330.923-36 358.936-36 358.936v50.586s50.534-28.014 111.035-25.698c43.332 1.658 35.798 17.454 79.525 18.405 52.803 1.149 45.133-25.676 96.031-22.225 27.834 1.887 23.584 11.68 52.516 12.154 33.34.547 28.206-12.029 60.519-14.006 55.547-3.4 47.083 25.837 104.033 24.077 43.534-1.345 35.681-17.805 79.525-18.405 49.359-.676 40.259 19.758 89.528 20.72 58.354 1.14 47.517-24.018 106.034-24.54 63.21-.564 51.316 26.014 114.536 26.508 67.638.529 55.216-26.762 122.539-28.36 82.709-1.964 67.429 35.368 150.549 34.843 78.69-.498 64.28-34.965 142.54-32.991 62.89 1.585 52.12 24.136 114.54 26.508 86.95 3.305 159.55-36.926 159.55-36.926V319s-72.6 40.232-159.55 36.926c-62.42-2.372-51.65-24.922-114.54-26.508-78.26-1.973-63.85 32.493-142.54 32.991-83.12.525-67.84-36.806-150.549-34.843-67.323 1.598-54.901 28.889-122.539 28.36-63.22-.493-51.326-27.072-114.536-26.508-58.517.522-47.68 25.68-106.034 24.541-49.269-.963-40.169-21.397-89.528-20.721-43.844.601-35.991 17.06-79.525 18.405-56.95 1.76-48.486-27.477-104.033-24.077-32.313 1.978-27.179 14.553-60.519 14.007-28.932-.474-24.682-10.268-52.516-12.155-50.898-3.451-43.228 23.374-96.031 22.225-43.727-.951-36.193-16.747-79.525-18.405z" fill-opacity=".15"/><path d="M75.035 383.238C14.534 380.923-36 408.936-36 408.936v50.586s50.534-28.014 111.035-25.698c43.332 1.658 35.798 17.454 79.525 18.405 52.803 1.149 45.133-25.676 96.031-22.225 27.834 1.887 23.584 11.68 52.516 12.154 33.34.547 28.206-12.029 60.519-14.006 55.547-3.4 47.083 25.837 104.033 24.077 43.534-1.345 35.681-17.805 79.525-18.405 49.359-.676 40.259 19.758 89.528 20.72 58.354 1.14 47.517-24.018 106.034-24.54 63.21-.564 51.316 26.014 114.536 26.508 67.638.529 55.216-26.762 122.539-28.36 82.709-1.964 67.429 35.368 150.549 34.843 78.69-.498 64.28-34.965 142.54-32.991 62.89 1.585 52.12 24.136 114.54 26.508 86.95 3.305 159.55-36.926 159.55-36.926V369s-72.6 40.232-159.55 36.926c-62.42-2.372-51.65-24.922-114.54-26.508-78.26-1.973-63.85 32.493-142.54 32.991-83.12.525-67.84-36.806-150.549-34.843-67.323 1.598-54.901 28.889-122.539 28.36-63.22-.493-51.326-27.072-114.536-26.508-58.517.522-47.68 25.68-106.034 24.541-49.269-.963-40.169-21.397-89.528-20.721-43.844.601-35.991 17.06-79.525 18.405-56.95 1.76-48.486-27.477-104.033-24.077-32.313 1.978-27.179 14.553-60.519 14.007-28.932-.474-24.682-10.268-52.516-12.155-50.898-3.451-43.228 23.374-96.031 22.225-43.727-.951-36.193-16.747-79.525-18.405z" fill-opacity=".2"/><path d="M75.035 434.087C14.534 431.796-36 459.511-36 459.511v50.048s50.534-27.716 111.035-25.425c43.332 1.641 35.798 17.268 79.525 18.21 52.803 1.136 45.133-25.403 96.031-21.989 27.834 1.867 23.584 11.556 52.516 12.025 33.34.54 28.206-11.901 60.519-13.858 55.547-3.363 47.083 25.563 104.033 23.822 43.534-1.331 35.681-17.616 79.525-18.21 49.359-.669 40.259 19.548 89.528 20.5 58.354 1.128 47.517-23.763 106.034-24.279 63.21-.558 51.316 25.738 114.536 26.226 67.638.523 55.216-26.477 122.539-28.059 82.709-1.942 67.429 34.992 150.549 34.473 78.69-.492 64.28-34.593 142.54-32.64 62.89 1.569 52.12 23.879 114.54 26.226 86.95 3.27 159.55-36.533 159.55-36.533V420s-72.6 39.804-159.55 36.534c-62.42-2.348-51.65-24.658-114.54-26.227-78.26-1.952-63.85 32.148-142.54 32.64-83.12.52-67.84-36.415-150.549-34.472-67.323 1.581-54.901 28.581-122.539 28.059-63.22-.489-51.326-26.785-114.536-26.227-58.517.517-47.68 25.407-106.034 24.28-49.269-.953-40.169-21.169-89.528-20.5-43.844.594-35.991 16.878-79.525 18.209-56.95 1.741-48.486-27.184-104.033-23.821-32.313 1.956-27.179 14.398-60.519 13.857-28.932-.469-24.682-10.158-52.516-12.025-50.898-3.414-43.228 23.126-96.031 21.989-43.727-.941-36.193-16.569-79.525-18.209z" fill-opacity=".3"/></g><defs><clipPath id="clip0_1_2"><path fill="#fff" d="M0 0h1512v982H0z"/></clipPath></defs></svg>